# Blender v2.76 (sub 0) OBJ File: 'zoc-mockup.blend'
# www.blender.org
v -0.155684 0.246092 0.249097
v -0.154535 -0.196175 0.249097
v 0.153657 -0.196175 0.249097
v 0.154806 0.246092 0.249097
v -0.061236 0.021449 0.254427
v -0.030278 0.025754 0.317533
v -0.006825 0.133386 0.317533
v -0.028255 0.174719 0.254427
v -0.013755 -0.093188 0.254427
v 0.003485 -0.050568 0.317533
v 0.120083 0.174718 0.254427
v 0.098654 0.133386 0.317533
v 0.122106 0.025753 0.317533
v 0.153065 0.021449 0.254427
v 0.088343 -0.050568 0.317533
v 0.105583 -0.093188 0.254427
v 0.009122 -0.040569 0.253297
v 0.082706 -0.040569 0.253297
v 0.082706 -0.089736 0.253297
v 0.009122 -0.089736 0.253297
v 0.009122 -0.040569 0.304362
v 0.009122 -0.089736 0.304362
v 0.082706 -0.040569 0.304362
v 0.082706 -0.089736 0.304362
v 0.032113 -0.063009 0.278829
v 0.038090 -0.266051 0.278829
v 0.041457 -0.266051 0.285814
v 0.038053 -0.063009 0.291149
v 0.038053 -0.063009 0.266510
v 0.041457 -0.266051 0.271844
v 0.053775 -0.063009 0.291149
v 0.050371 -0.266051 0.285814
v 0.053738 -0.266051 0.278829
v 0.059715 -0.063009 0.278829
v 0.050371 -0.266051 0.271844
v 0.053775 -0.063009 0.266510
v 0.191205 0.031566 0.202854
v 0.191205 -0.291050 0.205961
v 0.191205 -0.260661 0.001456
v 0.191205 0.185827 0.001456
v 0.191205 -0.347996 0.202521
v 0.191205 -0.362371 0.091302
v 0.191205 -0.387417 0.171611
v 0.191205 -0.392426 0.138753
v 0.191205 0.296691 0.045472
v 0.191205 0.294789 0.157506
v 0.191205 0.336019 0.088364
v 0.191205 0.333798 0.130157
v -0.155995 0.234818 0.076643
v -0.155995 0.332290 0.194318
v 0.155117 0.332290 0.194318
v 0.155117 0.234818 0.076643
v 0.155117 -0.385050 0.140383
v 0.155117 -0.333336 0.076643
v -0.155995 -0.385050 0.140383
v -0.155995 -0.333336 0.076643
v 0.082706 -0.040569 0.278829
v 0.009122 -0.040569 0.278829
v 0.009122 -0.103712 0.278829
v 0.082706 -0.103712 0.278829
v 0.154461 0.031566 0.202854
v 0.154460 -0.291050 0.205961
v 0.154460 -0.260661 0.001456
v 0.154461 0.185827 0.001456
v 0.154460 -0.347996 0.202521
v 0.154460 -0.362371 0.091302
v 0.154460 -0.387417 0.171611
v 0.154460 -0.392426 0.138753
v 0.154461 0.296691 0.045472
v 0.154461 0.294789 0.157506
v 0.154461 0.336019 0.088364
v 0.154461 0.333798 0.130157
v -0.155098 0.031566 0.202854
v -0.155098 -0.291050 0.205961
v -0.155098 -0.260661 0.001456
v -0.155098 0.185827 0.001456
v -0.155098 -0.347996 0.202521
v -0.155098 -0.362371 0.091302
v -0.155098 -0.387417 0.171611
v -0.155098 -0.392426 0.138753
v -0.155098 0.296691 0.045472
v -0.155098 0.294789 0.157506
v -0.155098 0.336019 0.088364
v -0.155098 0.333798 0.130157
v -0.191842 0.031566 0.202854
v -0.191842 -0.291050 0.205961
v -0.191842 -0.260661 0.001456
v -0.191842 0.185827 0.001456
v -0.191842 -0.347996 0.202521
v -0.191842 -0.362371 0.091302
v -0.191842 -0.387417 0.171611
v -0.191842 -0.392426 0.138753
v -0.191842 0.296691 0.045472
v -0.191842 0.294789 0.157506
v -0.191842 0.336019 0.088364
v -0.191842 0.333798 0.130157
v 0.193722 0.033077 0.215618
v 0.193722 -0.313995 0.218726
v 0.156271 0.033077 0.215618
v 0.156271 -0.313995 0.218726
v 0.193722 0.289240 0.173338
v 0.156271 0.289240 0.173338
v 0.193722 0.343451 0.136977
v 0.156271 0.343451 0.136977
v 0.193722 -0.362313 0.210921
v 0.156271 -0.362313 0.210921
v 0.193722 -0.398927 0.177475
v 0.156271 -0.398927 0.177475
v -0.156271 0.033077 0.215618
v -0.156271 -0.313995 0.218726
v -0.193722 0.033077 0.215618
v -0.193722 -0.313995 0.218726
v -0.156271 0.289240 0.173338
v -0.193722 0.289240 0.173338
v -0.156271 0.343451 0.136977
v -0.193722 0.343451 0.136977
v -0.156271 -0.362313 0.210921
v -0.193722 -0.362313 0.210921
v -0.156271 -0.398927 0.177475
v -0.193722 -0.398927 0.177475
v -0.001773 -0.234181 0.233866
v 0.094945 -0.234181 0.233866
v 0.095403 -0.323903 0.182224
v -0.002232 -0.323903 0.182224
v 0.095403 -0.320765 0.176772
v -0.002232 -0.320765 0.176772
v -0.001773 -0.231044 0.228414
v 0.094945 -0.231044 0.228414
v 0.046258 0.123231 0.328162
v -0.004167 0.094118 0.328162
v -0.004167 0.035893 0.328162
v 0.046258 0.006780 0.328162
v 0.096683 0.035893 0.328162
v 0.096683 0.094118 0.328162
v -0.006813 0.095647 0.304989
v 0.046258 0.126288 0.304989
v -0.006813 0.034365 0.304989
v 0.046258 0.003724 0.304989
v 0.099330 0.034365 0.304989
v 0.099330 0.095647 0.304989
v 0.201587 0.162581 0.198449
v 0.158155 0.162581 0.198449
v 0.201587 0.274887 0.179912
v 0.158155 0.274887 0.179912
v 0.157471 0.168884 0.236639
v 0.195946 0.168884 0.236639
v 0.157471 0.281190 0.218103
v 0.195946 0.281190 0.218103
v 0.201587 0.038372 0.218949
v 0.158155 0.038372 0.218949
v 0.201587 0.150678 0.200413
v 0.158155 0.150678 0.200413
v 0.157471 0.044675 0.257140
v 0.195946 0.044675 0.257140
v 0.157471 0.156981 0.238604
v 0.195946 0.156981 0.238604
v 0.037005 -0.145329 0.278829
v 0.040840 -0.145329 0.270877
v 0.054823 -0.145329 0.278829
v 0.040840 -0.145329 0.286782
v 0.050989 -0.145329 0.286782
v 0.050989 -0.145329 0.270877
v 0.058736 -0.140088 0.278829
v 0.038611 -0.140088 0.290275
v 0.053218 -0.140088 0.267383
v 0.033092 -0.140088 0.278829
v 0.038611 -0.140088 0.267383
v 0.053218 -0.140088 0.290275
v 0.078078 -0.299357 0.208008
v 0.015093 -0.299357 0.208008
v 0.015388 -0.265887 0.227273
v 0.077783 -0.265887 0.227273
v -0.061236 0.021449 0.247381
v -0.028255 0.174719 0.247381
v -0.013755 -0.093188 0.247381
v 0.120083 0.174718 0.247381
v 0.153065 0.021449 0.247381
v 0.105583 -0.093188 0.247381
vt 0.566298 0.528170
vt 0.531514 0.589150
vt 0.531514 0.507904
vt 0.433234 0.507871
vt 0.469886 0.571554
vt 0.396582 0.529099
vt 0.696250 0.634011
vt 0.697386 0.591317
vt 0.713423 0.592876
vt 0.696250 0.680829
vt 0.697102 0.657393
vt 0.713135 0.659229
vt 0.207846 0.680874
vt 0.209699 0.717915
vt 0.193850 0.716068
vt 0.209699 0.643833
vt 0.192089 0.680874
vt 0.697386 0.657393
vt 0.712344 0.633441
vt 0.697102 0.723525
vt 0.712325 0.681496
vt 0.496730 0.528262
vt 0.566298 0.568792
vt 0.496730 0.568885
vt 0.396582 0.571554
vt 0.469886 0.529099
vt 0.433234 0.592782
vt 0.193850 0.645680
vt 0.713423 0.655657
vt 0.713135 0.722063
vt 0.748929 0.029074
vt 0.778462 0.212738
vt 0.640562 0.104242
vt 0.214857 0.501977
vt 0.000000 0.501977
vt 0.001008 0.366174
vt 0.653135 0.507904
vt 0.687039 0.507904
vt 0.687039 0.559262
vt 0.086851 0.501977
vt 0.086851 0.719116
vt 0.000000 0.719116
vt 0.478188 0.507871
vt 0.486882 0.508094
vt 0.486161 0.561833
vt 0.560563 0.667068
vt 0.560563 0.701331
vt 0.542941 0.701295
vt 0.853502 0.499962
vt 0.897472 0.535890
vt 0.897472 0.931857
vt 0.344961 0.508462
vt 0.353442 0.507871
vt 0.355768 0.508462
vt 0.086851 0.576985
vt 0.192089 0.576985
vt 0.168772 0.630172
vt 0.103047 0.501977
vt 0.175893 0.501977
vt 0.607212 0.507904
vt 0.607212 0.611436
vt 0.566298 0.596480
vt 0.340548 0.665491
vt 0.296521 0.695128
vt 0.295491 0.589603
vt 0.296508 0.507871
vt 0.340548 0.536900
vt 0.290628 0.666077
vt 0.246449 0.695129
vt 0.245093 0.613451
vt 0.246466 0.507871
vt 0.290628 0.537486
vt 0.000000 0.000000
vt 0.214857 0.000000
vt 0.214643 0.057964
vt 0.086851 0.696658
vt 0.086851 0.662391
vt 0.104464 0.662345
vt 0.470370 0.561833
vt 0.469886 0.508094
vt 0.713748 0.507904
vt 0.724607 0.507904
vt 0.724222 0.561653
vt 0.192785 0.555943
vt 0.192089 0.502208
vt 0.200739 0.501977
vt 0.209094 0.502208
vt 0.208584 0.555943
vt 0.637596 0.415401
vt 0.355793 0.650171
vt 0.344935 0.650171
vt 0.345320 0.596697
vt 0.347286 0.507871
vt 0.180678 0.662299
vt 0.098262 0.662299
vt 0.110168 0.630172
vt 0.347286 0.509053
vt 0.353442 0.509053
vt 0.701509 0.000000
vt 0.730324 0.001753
vt 0.000215 0.057964
vt 0.213849 0.366174
vt 0.396582 0.507871
vt 0.396582 0.725009
vt 0.355793 0.725009
vt 0.578017 0.611436
vt 0.611722 0.611436
vt 0.611722 0.662793
vt 0.578017 0.662793
vt 0.566298 0.662793
vt 0.698896 0.486726
vt 0.778462 0.437586
vt 0.775710 0.477254
vt 0.754127 0.504575
vt 0.731428 0.507904
vt 0.778462 0.631737
vt 0.816298 1.000000
vt 0.816304 0.000000
vt 0.778462 0.368247
vt 0.897520 0.068089
vt 0.897520 0.464014
vt 0.642526 0.559262
vt 0.642526 0.507904
vt 0.122076 0.696566
vt 0.104464 0.706352
vt 0.525319 0.666997
vt 0.542941 0.657293
vt 0.467183 0.478772
vt 0.389876 0.480695
vt 0.358761 0.403675
vt 0.355793 0.092549
vt 0.496730 0.070284
vt 0.496730 0.295109
vt 0.448568 0.506100
vt 0.419739 0.507871
vt 0.417124 0.021196
vt 0.493977 0.030621
vt 0.449672 0.000000
vt 0.974624 0.505765
vt 0.974624 0.479631
vt 1.000000 0.479631
vt 0.496730 0.686215
vt 0.496730 0.657293
vt 0.522106 0.657293
vt 0.214857 0.890277
vt 0.214857 0.580952
vt 0.240233 0.580952
vt 0.214857 0.993182
vt 0.214857 0.968345
vt 0.240233 0.968345
vt 0.974624 0.297938
vt 0.974624 0.073231
vt 1.000000 0.073231
vt 0.974624 0.033414
vt 0.974624 0.004754
vt 1.000000 0.004754
vt 0.974624 0.000000
vt 1.000000 0.000000
vt 1.000000 0.033414
vt 0.214857 0.507871
vt 0.240233 0.507871
vt 0.240233 0.890277
vt 0.496730 0.718440
vt 0.522106 0.686215
vt 0.608063 0.029074
vt 0.637596 0.212738
vt 0.499696 0.104242
vt 0.496730 0.415401
vt 0.560643 0.000000
vt 0.589458 0.001753
vt 0.558029 0.486726
vt 0.637596 0.437586
vt 0.634844 0.477254
vt 0.613261 0.504575
vt 0.590562 0.507904
vt 0.326246 0.478772
vt 0.248939 0.480695
vt 0.217825 0.403675
vt 0.214857 0.092549
vt 0.355793 0.070284
vt 0.355793 0.295109
vt 0.307631 0.506100
vt 0.278802 0.507871
vt 0.276188 0.021196
vt 0.353041 0.030621
vt 0.308736 0.000000
vt 0.949248 0.505765
vt 0.949248 0.479631
vt 0.122076 0.691221
vt 0.122076 0.662299
vt 0.147453 0.662299
vt 0.949248 0.888172
vt 0.949248 0.578847
vt 0.974624 0.578847
vt 0.949248 0.991076
vt 0.949248 0.966239
vt 0.974624 0.966239
vt 0.949248 0.297938
vt 0.949248 0.073231
vt 0.949248 0.033414
vt 0.949248 0.004754
vt 0.949248 0.000000
vt 0.974624 0.888172
vt 0.122076 0.723446
vt 0.147453 0.691221
vt 0.923384 0.302524
vt 0.923384 0.060774
vt 0.949248 0.060774
vt 0.949248 0.479415
vt 0.923384 0.479415
vt 0.949248 0.515797
vt 0.923384 0.515797
vt 0.923384 0.026802
vt 0.949248 0.026802
vt 0.923384 0.000000
vt 0.897520 0.302524
vt 0.897520 0.060774
vt 0.897520 0.479415
vt 0.897520 0.515797
vt 0.897520 0.026802
vt 0.897520 0.000000
vt 0.518843 0.601448
vt 0.518843 0.644996
vt 0.496730 0.656974
vt 0.210521 0.574187
vt 0.210521 0.501977
vt 0.493050 0.507871
vt 0.493050 0.576014
vt 0.490443 0.576014
vt 0.344881 0.580098
vt 0.340548 0.580106
vt 0.340548 0.507879
vt 0.490443 0.507871
vt 0.490443 0.575375
vt 0.486882 0.575375
vt 0.456572 0.592782
vt 0.456572 0.672156
vt 0.426577 0.672156
vt 0.615955 0.668869
vt 0.615955 0.591317
vt 0.642526 0.591317
vt 0.496595 0.729098
vt 0.469886 0.729026
vt 0.469886 0.649728
vt 0.642527 0.559739
vt 0.669181 0.559262
vt 0.669181 0.586115
vt 0.669388 0.591493
vt 0.669388 0.670790
vt 0.642526 0.670614
vt 0.642054 0.674730
vt 0.612059 0.674730
vt 0.396582 0.592782
vt 0.426577 0.592782
vt 0.615955 0.585456
vt 0.615955 0.507904
vt 0.713749 0.507977
vt 0.713749 0.587274
vt 0.174107 0.692613
vt 0.147453 0.693090
vt 0.147453 0.666236
vt 0.696250 0.591493
vt 0.696250 0.670790
vt 0.669388 0.670614
vt 0.642054 0.591317
vt 0.612059 0.591317
vt 0.353869 0.592770
vt 0.346860 0.592770
vt 0.200731 0.559533
vt 0.206125 0.559682
vt 0.205609 0.643833
vt 0.195968 0.643833
vt 0.195148 0.559682
vt 0.715673 0.565440
vt 0.722682 0.565440
vt 0.722256 0.649607
vt 0.473317 0.649728
vt 0.472844 0.565570
vt 0.478203 0.565426
vt 0.483815 0.565570
vt 0.482953 0.649728
vt 0.355408 0.596697
vt 0.200821 0.555728
vt 0.714134 0.561653
vt 0.478083 0.561626
vt 0.542656 0.601242
vt 0.542656 0.645202
vt 0.496730 0.589470
vt 0.560563 0.589150
vt 0.612059 0.507904
vt 0.612059 0.611436
vt 0.290628 0.589603
vt 0.291645 0.507871
vt 0.240233 0.613451
vt 0.241606 0.507871
vt 0.291658 0.695128
vt 0.209094 0.501977
vt 0.209684 0.501977
vt 0.209684 0.585268
vt 0.241589 0.695128
vt 0.671661 0.027197
vt 0.653135 0.559262
vt 0.566298 0.522861
vt 0.339817 0.591398
vt 0.289655 0.611619
vt 0.355793 0.507871
vt 0.566298 0.611436
vt 0.778500 0.940012
vt 0.778490 0.060004
vt 0.525320 0.701260
vt 0.472382 0.003316
vt 1.000000 0.505765
vt 0.240233 0.993182
vt 1.000000 0.297938
vt 0.522106 0.718440
vt 0.530795 0.027196
vt 0.331446 0.003316
vt 0.974624 0.991076
vt 0.147453 0.723446
vt 0.949248 0.302524
vt 0.214857 0.574196
vt 0.344881 0.507871
vt 0.486882 0.507871
vt 0.642526 0.668869
vt 0.496595 0.649801
vt 0.642526 0.590052
vt 0.396582 0.672156
vt 0.642526 0.585456
vt 0.687039 0.587201
vt 0.174107 0.662299
vt 0.669388 0.591317
vt 0.200871 0.643702
vt 0.716100 0.649607
vt 0.478024 0.649602
vt 0.560563 0.657293
vt 0.209094 0.585268
vn -0.000000 0.000000 1.000000
vn -0.000000 0.000000 -1.000000
vn 0.993500 0.000000 0.113500
vn -0.496800 -0.860400 0.113500
vn -0.496800 0.860400 0.113500
vn 0.496800 0.860400 0.113500
vn 0.496800 -0.860400 0.113500
vn -0.993500 0.000000 0.113500
vn 1.000000 -0.000000 0.000000
vn -0.000000 -0.498900 0.866700
vn -0.000000 -0.509800 0.860300
vn 0.000000 0.770100 -0.637900
vn 0.999900 -0.012700 -0.000000
vn 0.531800 -0.013400 0.846800
vn -1.000000 0.000000 -0.000000
vn 1.000000 -0.000400 0.004900
vn 0.000000 -1.000000 0.000000
vn 0.000000 0.836500 0.547900
vn -0.885200 0.191100 0.424200
vn -0.884900 0.190400 0.425200
vn -0.885600 0.192100 0.422900
vn -0.824500 -0.354200 0.441300
vn -0.822800 -0.340800 0.454900
vn -0.823800 -0.348800 0.446800
vn 0.823800 -0.348800 0.446800
vn 0.822800 -0.340800 0.454900
vn 0.824500 -0.354200 0.441300
vn 0.885600 0.192100 0.422900
vn 0.884900 0.190400 0.425200
vn 0.885200 0.191100 0.424200
vn 0.000000 0.536400 0.844000
vn 0.531800 -0.013400 -0.846800
vn -0.531800 -0.013400 0.846800
vn -0.999900 -0.012700 -0.000000
vn -0.531800 -0.013400 -0.846800
vn -0.000000 -0.828700 0.559700
vn -0.000000 -0.776600 -0.630000
vn -0.000000 -0.509800 -0.860300
vn 0.999900 -0.001200 0.014900
vn 1.000000 -0.001000 0.002400
vn -1.000000 -0.001000 0.002400
vn -1.000000 -0.000400 0.004900
vn -0.999900 -0.001200 0.014900
vn 0.000000 0.874600 0.484900
vn 0.000000 0.381100 0.924500
vn 0.000000 0.941200 -0.337700
vn 0.000000 -0.353900 -0.935300
vn 0.000000 0.187800 -0.982200
vn 0.000000 -0.978700 -0.205200
vn 0.000000 -0.761000 -0.648700
vn 0.000000 0.090000 0.995900
vn 0.000000 -0.025400 0.999700
vn 0.000000 -0.354800 0.935000
vn 0.000000 -0.863500 0.504300
vn 0.000000 0.567400 -0.823500
vn 0.000000 0.086200 0.996300
vn 0.000000 -0.075500 0.997100
vn 0.000000 0.368300 0.929700
vn 0.000000 0.557000 0.830500
vn 0.000000 -0.435100 0.900400
vn 0.000000 -0.674400 0.738300
vn 0.000000 -0.203600 0.979100
vn -1.000000 0.003800 0.002200
vn 0.000000 -0.866700 -0.498800
vn 1.000000 0.003800 0.002200
vn 0.000000 0.866700 0.498800
vn 0.000000 -0.162800 -0.986700
vn 0.000000 0.162800 0.986700
vn -0.999800 -0.002900 -0.017400
vn 0.000000 0.986700 -0.162800
vn 0.989500 0.023500 0.142300
vn 0.000000 -0.986700 0.162800
vn -0.531800 -0.009500 -0.846800
vn 0.531800 -0.009500 -0.846800
vn -1.000000 -0.009000 0.000000
vn -0.531800 -0.009500 0.846800
vn 0.531800 -0.009500 0.846800
vn 1.000000 -0.009000 0.000000
vn -0.415700 -0.620200 -0.665200
vn -0.418000 -0.620200 -0.663800
vn 0.418000 -0.620200 -0.663800
vn -0.801300 -0.598300 0.000000
vn -0.415700 -0.620200 0.665200
vn -0.418000 -0.620200 0.663800
vn 0.418000 -0.620200 0.663800
vn 0.415700 -0.620200 -0.665200
vn 0.801300 -0.598300 0.000000
vn 0.415700 -0.620200 0.665200
vn 0.000000 -0.498800 0.866700
vn -0.506500 -0.428000 0.748500
vn -0.502200 -0.428100 0.751400
vn -0.504500 -0.428000 0.749800
vn 0.000000 -0.724300 0.689500
vn 0.504500 -0.428000 0.749800
vn 0.502200 -0.428100 0.751400
vn 0.506500 -0.428000 0.748500
vn 0.000000 1.000000 0.000000
vn -0.995900 -0.090200 0.000000
vn -0.555600 -0.831500 0.000000
vn 0.995900 -0.090200 0.000000
vn 0.977600 0.210400 0.000000
vn -0.977600 0.210400 0.000000
vn 0.555600 -0.831500 0.000000
vn -0.886000 0.193100 0.421500
vn -0.825700 -0.365300 0.430000
vn 0.825700 -0.365300 0.430000
vn 0.886000 0.193100 0.421500
vn 1.000000 -0.002600 0.001600
vn -1.000000 -0.002600 0.001600
vn -0.507000 -0.428000 0.748100
vn 0.507000 -0.428000 0.748100
s off
f 131/1/1 133/2/1 130/3/1
f 136/4/2 139/5/2 135/6/2
f 139/7/3 140/8/3 134/9/3
f 137/10/4 138/11/4 132/12/4
f 136/13/5 135/14/5 130/15/5
f 140/16/6 136/13/6 129/17/6
f 138/18/7 139/7/7 133/19/7
f 135/20/8 137/10/8 131/21/8
f 129/22/1 130/3/1 133/2/1
f 131/1/1 132/23/1 133/2/1
f 133/2/1 134/24/1 129/22/1
f 137/25/2 135/6/2 139/5/2
f 136/4/2 140/26/2 139/5/2
f 139/5/2 138/27/2 137/25/2
f 133/19/3 139/7/3 134/9/3
f 131/21/4 137/10/4 132/12/4
f 129/17/5 136/13/5 130/15/5
f 134/28/6 140/16/6 129/17/6
f 132/29/7 138/18/7 133/19/7
f 130/30/8 135/20/8 131/21/8
s 1
f 46/31/9 37/32/9 40/33/9
f 55/34/10 53/35/10 3/36/10
f 24/37/11 23/38/1 21/39/1
f 52/40/12 49/41/12 50/42/12
f 34/43/13 31/44/14 168/45/14
f 22/46/15 21/47/15 58/48/15
f 53/49/16 54/50/9 52/51/9
f 33/52/17 27/53/17 26/54/17
f 13/55/1 6/56/1 10/57/1
f 12/58/1 7/59/1 6/56/1
f 11/60/18 8/61/18 7/62/18
f 7/63/19 8/64/20 5/65/21
f 5/65/22 9/66/23 10/67/24
f 15/68/25 16/69/26 14/70/27
f 14/70/28 11/71/29 12/72/30
f 51/73/31 50/74/31 1/75/31
f 19/76/9 18/77/9 57/78/9
f 165/79/32 36/80/32 34/43/13
f 31/81/14 28/82/33 164/83/33
f 164/84/33 28/85/33 25/86/34
f 25/86/34 29/87/35 167/88/35
f 39/89/9 40/33/9 37/32/9
f 29/90/35 36/91/32 165/92/32
f 33/52/17 32/93/17 27/53/17
f 9/94/36 16/95/36 15/96/36
f 35/97/17 26/54/17 30/98/17
f 47/99/9 48/100/9 46/31/9
f 4/101/1 1/75/1 2/102/1
f 56/103/37 54/104/37 53/105/37
f 20/106/38 17/107/2 18/108/2
f 20/106/38 19/109/38 60/110/17
f 42/111/9 39/89/9 38/112/9
f 41/113/9 43/114/9 44/115/9
f 3/116/39 53/49/16 51/117/40
f 50/118/41 55/49/42 2/119/43
f 49/120/15 56/121/15 55/49/42
f 59/122/17 60/123/17 24/37/11
f 24/124/9 60/125/9 57/78/9
f 20/126/15 59/127/15 58/48/15
f 70/128/15 69/129/15 64/130/15
f 63/131/15 62/132/15 61/133/15
f 70/128/15 72/134/15 71/135/15
f 66/136/15 65/137/15 62/132/15
f 65/137/15 66/136/15 68/138/15
f 72/139/44 70/140/45 46/141/45
f 71/142/46 72/143/44 48/144/44
f 63/145/47 64/146/48 40/147/48
f 68/148/49 66/149/50 42/150/50
f 61/151/51 62/152/52 38/153/52
f 65/154/53 67/155/54 43/156/54
f 67/155/54 68/157/49 44/158/49
f 62/152/52 65/154/53 41/159/53
f 64/146/48 69/160/55 45/161/55
f 66/149/50 63/145/47 39/162/47
f 46/141/45 70/140/45 61/151/51
f 69/163/55 71/142/46 47/164/46
f 82/165/9 73/166/9 76/167/9
f 75/168/9 76/167/9 73/166/9
f 83/169/9 84/170/9 82/165/9
f 78/171/9 75/168/9 74/172/9
f 77/173/9 79/174/9 80/175/9
f 94/176/15 93/177/15 88/178/15
f 87/179/15 86/180/15 85/181/15
f 94/176/15 96/182/15 95/183/15
f 90/184/15 89/185/15 86/180/15
f 89/185/15 90/184/15 92/186/15
f 96/187/44 94/188/45 82/140/45
f 95/189/46 96/190/44 84/191/44
f 87/192/47 88/193/48 76/194/48
f 92/195/49 90/196/50 78/197/50
f 85/198/51 86/199/52 74/152/52
f 89/200/53 91/201/54 79/155/54
f 91/201/54 92/202/49 80/157/49
f 86/199/52 89/200/53 77/154/53
f 76/194/48 88/193/48 93/187/55
f 90/196/50 87/192/47 75/203/47
f 94/188/45 85/198/51 73/151/51
f 93/204/55 95/189/46 83/205/46
f 99/206/56 100/207/57 98/208/57
f 101/209/58 102/210/58 99/206/56
f 103/211/59 104/212/59 102/210/58
f 100/207/57 106/213/60 105/214/60
f 108/215/61 107/202/61 105/214/60
f 111/216/56 112/217/57 110/207/57
f 113/210/58 114/218/58 111/216/56
f 115/212/59 116/219/59 114/218/58
f 112/217/57 118/220/60 117/213/60
f 120/221/61 119/215/61 117/213/60
f 171/222/62 172/223/62 122/224/62
f 127/225/63 126/226/63 124/34/63
f 126/227/64 125/228/64 123/229/64
f 123/230/65 125/231/65 128/232/65
f 128/233/66 127/234/66 121/235/66
f 142/236/67 144/237/67 143/238/67
f 146/239/68 148/240/68 147/241/68
f 142/242/69 145/243/69 147/244/69
f 144/245/70 147/246/70 148/247/70
f 141/248/71 143/249/71 148/250/71
f 142/251/72 141/252/72 146/239/72
f 149/253/67 150/254/67 152/238/67
f 154/255/68 156/256/68 155/123/68
f 150/38/69 153/257/69 155/258/69
f 152/259/70 155/260/70 156/261/70
f 149/262/71 151/263/71 156/264/71
f 150/265/72 149/266/72 154/255/72
f 158/267/73 162/268/74 35/97/74
f 157/269/75 158/270/73 30/271/73
f 27/272/76 160/273/76 157/269/75
f 161/274/77 160/275/76 27/276/76
f 35/277/74 162/278/74 159/279/78
f 159/279/78 161/280/77 32/281/77
f 158/267/79 167/282/80 165/92/81
f 166/283/82 167/88/80 158/270/79
f 160/273/83 164/84/84 166/283/82
f 168/284/85 164/83/84 160/275/83
f 162/278/86 165/79/81 163/285/87
f 163/285/87 168/45/85 161/280/88
f 170/286/89 169/287/89 172/223/89
f 170/286/90 171/222/91 121/288/92
f 169/287/93 170/286/93 124/289/93
f 122/224/94 172/223/95 169/287/96
f 11/60/97 176/290/97 174/291/97
f 5/65/98 173/292/98 175/293/99
f 14/70/100 177/294/100 176/295/101
f 8/64/102 174/296/102 173/292/98
f 9/297/99 175/298/99 178/299/103
f 16/69/103 178/300/103 177/294/100
f 45/301/9 46/31/9 40/33/9
f 2/102/10 55/34/10 3/36/10
f 22/302/11 24/37/11 21/39/1
f 51/35/12 52/40/12 50/42/12
f 163/285/13 34/43/13 168/45/14
f 59/127/15 22/46/15 58/48/15
f 51/117/40 53/49/16 52/51/9
f 35/97/17 33/52/17 26/54/17
f 15/96/1 13/55/1 10/57/1
f 13/55/1 12/58/1 6/56/1
f 12/303/18 11/60/18 7/62/18
f 6/304/104 7/63/19 5/65/21
f 6/304/105 5/65/22 10/67/24
f 13/305/106 15/68/25 14/70/27
f 13/305/107 14/70/28 12/72/30
f 4/101/31 51/73/31 1/75/31
f 60/125/9 19/76/9 57/78/9
f 163/285/13 165/79/32 34/43/13
f 168/284/14 31/81/14 164/83/33
f 166/283/34 164/84/33 25/86/34
f 166/283/34 25/86/34 167/88/35
f 38/112/9 39/89/9 37/32/9
f 167/282/35 29/90/35 165/92/32
f 10/57/36 9/94/36 15/96/36
f 45/301/9 47/99/9 46/31/9
f 3/36/1 4/101/1 2/102/1
f 55/306/37 56/103/37 53/105/37
f 19/109/38 20/106/38 18/108/2
f 59/307/17 20/106/38 60/110/17
f 41/113/9 42/111/9 38/112/9
f 42/111/9 41/113/9 44/115/9
f 4/308/108 3/116/39 51/117/40
f 1/309/109 50/118/41 2/119/43
f 50/118/41 49/120/15 55/49/42
f 22/302/11 59/122/17 24/37/11
f 23/190/9 24/124/9 57/78/9
f 17/310/15 20/126/15 58/48/15
f 61/133/15 70/128/15 64/130/15
f 64/130/15 63/131/15 61/133/15
f 69/129/15 70/128/15 71/135/15
f 63/131/15 66/136/15 62/132/15
f 67/311/15 65/137/15 68/138/15
f 48/312/44 72/139/44 46/141/45
f 47/164/46 71/142/46 48/144/44
f 39/162/47 63/145/47 40/147/48
f 44/313/49 68/148/49 42/150/50
f 37/314/51 61/151/51 38/153/52
f 41/159/53 65/154/53 43/156/54
f 43/156/54 67/155/54 44/158/49
f 38/153/52 62/152/52 41/159/53
f 40/147/48 64/146/48 45/161/55
f 42/150/50 66/149/50 39/162/47
f 37/314/51 46/141/45 61/151/51
f 45/315/55 69/163/55 47/164/46
f 81/316/9 82/165/9 76/167/9
f 74/172/9 75/168/9 73/166/9
f 81/316/9 83/169/9 82/165/9
f 77/173/9 78/171/9 74/172/9
f 78/171/9 77/173/9 80/175/9
f 85/181/15 94/176/15 88/178/15
f 88/178/15 87/179/15 85/181/15
f 93/177/15 94/176/15 95/183/15
f 87/179/15 90/184/15 86/180/15
f 91/317/15 89/185/15 92/186/15
f 84/139/44 96/187/44 82/140/45
f 83/205/46 95/189/46 84/191/44
f 75/203/47 87/192/47 76/194/48
f 80/318/49 92/195/49 78/197/50
f 73/151/51 85/198/51 74/152/52
f 77/154/53 89/200/53 79/155/54
f 79/155/54 91/201/54 80/157/49
f 74/152/52 86/199/52 77/154/53
f 81/139/55 76/194/48 93/187/55
f 78/197/50 90/196/50 75/203/47
f 82/140/45 94/188/45 73/151/51
f 81/319/55 93/204/55 83/205/46
f 97/320/56 99/206/56 98/208/57
f 97/320/56 101/209/58 99/206/56
f 101/209/58 103/211/59 102/210/58
f 98/208/57 100/207/57 105/214/60
f 106/213/60 108/215/61 105/214/60
f 109/206/56 111/216/56 110/207/57
f 109/206/56 113/210/58 111/216/56
f 113/210/58 115/212/59 114/218/58
f 110/207/57 112/217/57 117/213/60
f 118/220/60 120/221/61 117/213/60
f 121/288/62 171/222/62 122/224/62
f 121/321/63 127/225/63 124/34/63
f 124/233/64 126/227/64 123/229/64
f 122/322/65 123/230/65 128/232/65
f 122/323/66 128/233/66 121/235/66
f 141/254/67 142/236/67 143/238/67
f 145/324/68 146/239/68 147/241/68
f 144/325/69 142/242/69 147/244/69
f 143/326/70 144/245/70 148/247/70
f 146/241/71 141/248/71 148/250/71
f 145/324/72 142/251/72 146/239/72
f 151/327/67 149/253/67 152/238/67
f 153/328/68 154/255/68 155/123/68
f 152/329/69 150/38/69 155/258/69
f 151/330/70 152/259/70 156/261/70
f 154/331/71 149/262/71 156/264/71
f 153/328/72 150/265/72 154/255/72
f 30/98/73 158/267/73 35/97/74
f 26/332/75 157/269/75 30/271/73
f 26/332/75 27/272/76 157/269/75
f 32/333/77 161/274/77 27/276/76
f 33/334/78 35/277/74 159/279/78
f 33/334/78 159/279/78 32/281/77
f 162/268/86 158/267/79 165/92/81
f 157/269/82 166/283/82 158/270/79
f 157/269/82 160/273/83 166/283/82
f 161/274/88 168/284/85 160/275/83
f 159/279/87 162/278/86 163/285/87
f 159/279/87 163/285/87 161/280/88
f 171/222/89 170/286/89 172/223/89
f 124/289/110 170/286/90 121/288/92
f 123/335/93 169/287/93 124/289/93
f 123/335/111 122/224/94 169/287/96
f 8/61/97 11/60/97 174/291/97
f 9/66/99 5/65/98 175/293/99
f 11/71/101 14/70/100 176/295/101
f 5/65/98 8/64/102 173/292/98
f 16/336/103 9/297/99 178/299/103
f 14/70/100 16/69/103 177/294/100
