# Blender v2.69 (sub 0) OBJ File: 'x11.blend'
# www.blender.org
v 0.011933 -0.311063 0.387480
v 0.001998 -0.312608 0.360137
v -0.000537 -0.110439 0.349640
v 0.009398 -0.108894 0.376983
v -0.015298 -0.310891 0.397365
v -0.025234 -0.312436 0.370023
v -0.027769 -0.110267 0.359526
v -0.017833 -0.108723 0.386868
v 0.036889 0.004221 0.205780
v 0.045569 -0.062140 0.221715
v 0.074164 -0.054258 0.398609
v 0.044657 -0.092347 0.387731
v 0.055556 -0.024720 0.206163
v 0.069174 -0.084155 0.397096
v 0.075118 -0.151284 0.353411
v 0.071973 -0.073023 0.393603
v 0.043701 -0.139567 0.348209
v 0.029630 -0.080522 0.382134
v 0.057322 -0.156192 0.327627
v 0.058843 -0.045076 0.361854
v 0.005655 -0.241007 0.372494
v -0.011394 -0.228927 0.369336
v -0.005317 -0.237181 0.352102
v 0.045030 -0.022044 0.273121
v 0.023286 -0.081193 0.272947
v 0.047872 -0.048289 0.272702
v 0.063482 -0.067009 0.094300
v 0.029746 0.007512 0.205391
v 0.064038 -0.109521 0.109853
v 0.031560 -0.064863 0.209513
v 0.044535 -0.089649 0.096450
v 0.005020 -0.025439 0.202547
v 0.079439 -0.080411 0.001057
v 0.080699 -0.085461 0.097455
v 0.065295 -0.100812 0.003837
v 0.050006 -0.080689 0.003210
v 0.099335 -0.141292 -0.007555
v 0.072248 -0.143540 0.010941
v 0.050091 -0.162389 -0.005142
v 0.047687 -0.065498 -0.000278
v 0.063363 -0.072932 0.033412
v 0.066468 -0.034064 0.349336
v 0.030241 -0.084704 0.336731
v 0.056074 -0.069882 0.347309
v 0.074349 -0.063050 -0.001330
v 0.068905 -0.053189 0.096792
v 0.058760 -0.115306 0.133274
v 0.032158 -0.081911 0.101302
v 0.058330 -0.026782 0.206838
v 0.095528 -0.082442 0.117564
v 0.064617 -0.068380 0.001972
v 0.015283 -0.073067 0.481730
v -0.003664 -0.095569 0.477553
v 0.011062 -0.072393 0.420933
v -0.004059 -0.089012 0.414192
v 0.026372 -0.061517 0.458637
v -0.002406 -0.103959 0.454714
v 0.004749 -0.081678 0.417368
v 0.009417 -0.087988 0.482652
v 0.013757 -0.087584 0.453973
v 0.029006 -0.043354 0.401558
v 0.023929 -0.050594 0.395080
v -0.000349 -0.088863 0.454799
v 0.011284 -0.071198 0.465018
v -0.004890 -0.073963 0.203455
v 0.002557 0.010116 0.210531
v -0.015615 -0.071098 0.399249
v 0.017281 -0.021271 0.413882
v 0.000106 -0.024756 0.185654
v -0.002837 -0.056516 0.426342
v -0.032975 0.006401 0.213963
v -0.049012 -0.063075 0.214487
v -0.040278 0.016602 0.410093
v -0.060599 -0.024260 0.399509
v -0.055456 -0.024520 0.206449
v -0.063467 -0.000394 0.411087
v -0.104799 -0.048206 0.337562
v -0.066354 0.009245 0.400718
v -0.083836 -0.041351 0.354588
v -0.057565 -0.024397 0.405125
v -0.079832 -0.046593 0.325404
v -0.025728 0.007516 0.373297
v -0.019449 -0.131963 0.354682
v -0.008918 -0.117422 0.365828
v -0.004170 -0.116198 0.346384
v 0.011087 -0.001400 0.270350
v -0.028686 0.003966 0.273946
v -0.018232 -0.083012 0.268639
v -0.050444 -0.057156 0.272708
v -0.047547 -0.014055 0.273315
v -0.082680 0.015485 0.099028
v -0.028801 0.008329 0.209597
v -0.084952 -0.028020 0.087410
v -0.032608 -0.066378 0.204472
v -0.062581 -0.004445 0.090280
v -0.005047 -0.025392 0.202479
v -0.085595 0.054971 0.010753
v -0.098268 -0.001917 0.089700
v -0.078009 0.031270 0.011593
v -0.057417 0.048221 0.014218
v -0.122021 0.003840 -0.003823
v -0.097480 -0.007925 0.014621
v -0.081287 -0.031029 -0.002953
v -0.050651 0.059997 0.010944
v -0.069024 0.054659 0.043655
v 0.028223 0.006368 0.362219
v -0.030120 0.021833 0.357398
v -0.025192 -0.076676 0.339780
v -0.057060 -0.031389 0.345183
v -0.055148 -0.003582 0.357399
v -0.075356 0.070317 0.009890
v -0.082670 0.024741 0.111111
v -0.080366 -0.050632 0.100669
v -0.050956 -0.004360 0.092654
v -0.058524 -0.026520 0.207493
v -0.111842 -0.008217 0.113765
v -0.069984 0.063415 0.016310
v -0.020665 -0.093782 0.483331
v 0.004923 -0.055946 0.490603
v -0.016052 -0.052567 0.485332
v -0.029801 -0.078470 0.480558
v -0.001260 -0.052914 0.419564
v -0.023503 -0.049780 0.424907
v -0.024665 -0.087086 0.410430
v -0.033804 -0.069553 0.417611
v 0.011698 -0.041780 0.468920
v -0.013551 -0.035399 0.463227
v -0.030075 -0.103340 0.455871
v -0.041549 -0.078351 0.459214
v -0.030054 -0.058910 0.421369
v -0.013052 -0.069985 0.414140
v -0.008380 -0.076610 0.492478
v -0.027177 -0.064048 0.486859
v -0.033069 -0.056951 0.459356
v 0.017587 -0.022124 0.408288
v -0.007188 -0.019676 0.405719
v -0.007606 -0.057044 0.387865
v -0.012826 -0.026548 0.399305
v -0.028629 -0.070363 0.458050
v -0.020361 -0.088086 0.453567
v -0.015472 -0.053694 0.468094
v 0.004096 -0.054049 0.472609
vt 0.633625 0.973632
vt 0.633625 0.928414
vt 0.668870 0.915617
vt 0.507019 0.895675
vt 0.476982 0.651870
vt 0.545177 0.914051
vt 0.507019 0.623217
vt 0.545177 0.641592
vt 0.459812 0.623723
vt 0.459812 0.963166
vt 0.412015 0.623217
vt 0.668870 0.914609
vt 0.619986 0.915617
vt 0.668870 0.627539
vt 0.545177 0.627539
vt 0.593456 0.631755
vt 0.545177 0.914995
vt 0.668870 0.960836
vt 0.515140 0.670245
vt 0.412015 0.962660
vt 0.619986 0.628546
vt 0.593456 0.919211
vt 0.390300 0.045752
vt 0.332103 0.082120
vt 0.264562 0.045340
vt 0.000000 0.067597
vt 0.110025 0.000000
vt 0.111805 0.041868
vt 0.449535 0.133800
vt 0.476854 0.076836
vt 0.533725 0.071245
vt 0.428437 0.056140
vt 0.698444 0.033120
vt 0.667495 0.140991
vt 0.657762 0.003863
vt 0.054906 0.157675
vt 0.019576 0.076914
vt 0.127071 0.138139
vt 0.412015 0.284276
vt 0.400003 0.373294
vt 0.354023 0.380361
vt 0.352669 0.291406
vt 0.305871 0.273700
vt 0.882304 0.260508
vt 0.946040 0.283183
vt 0.905326 0.392741
vt 0.865504 0.613881
vt 0.810416 0.695361
vt 0.755945 0.703110
vt 0.860192 0.419227
vt 0.908782 0.587822
vt 0.865504 0.866492
vt 0.265141 0.701249
vt 0.293520 0.683892
vt 0.293520 0.721266
vt 0.412015 0.223288
vt 0.515563 0.135037
vt 0.293301 0.167200
vt 0.250362 0.151541
vt 0.412015 0.030641
vt 0.395152 0.151293
vt 0.361853 0.160594
vt 0.630671 0.451796
vt 0.545177 0.425091
vt 0.668870 0.262061
vt 0.107737 0.512628
vt 0.059293 0.543138
vt 0.064298 0.523311
vt 0.775238 0.431896
vt 0.818387 0.262061
vt 0.860192 0.264930
vt 0.857331 0.079542
vt 0.729185 0.073013
vt 0.740245 0.032514
vt 0.668870 0.614723
vt 0.628655 0.627539
vt 0.559754 0.462886
vt 0.755945 0.466919
vt 0.827084 0.420588
vt 0.000000 0.531994
vt 0.029400 0.504800
vt 0.079126 0.261641
vt 0.124839 0.258068
vt 0.729185 0.062935
vt 0.729185 0.157081
vt 0.109964 0.449179
vt 0.134626 0.399587
vt 0.134626 0.475195
vt 0.611291 0.468059
vt 0.676261 0.678652
vt 0.740629 0.653308
vt 0.668870 0.845155
vt 0.049809 0.702222
vt 0.107737 0.741791
vt 0.782545 0.578243
vt 0.860192 0.587822
vt 0.412015 0.902778
vt 0.390428 0.935320
vt 0.366208 0.940395
vt 0.316399 0.824083
vt 0.335964 0.855120
vt 0.291555 0.819634
vt 0.027642 0.857332
vt 0.036274 0.791832
vt 0.066216 0.879841
vt 0.037912 0.774286
vt 0.072872 0.770702
vt 0.069415 0.801737
vt 0.412015 0.830637
vt 0.387941 0.819634
vt 0.044820 0.757549
vt 0.076300 0.741791
vt 0.037611 0.926297
vt 0.027455 0.894115
vt 0.068000 0.912043
vt 0.878597 0.215831
vt 0.920837 0.087283
vt 0.934892 0.236401
vt 0.894796 0.769722
vt 0.938485 0.842947
vt 0.865504 0.757000
vt 0.902395 0.917874
vt 0.934892 0.087107
vt 0.984052 0.089550
vt 0.984052 0.242932
vt 0.091596 0.415020
vt 0.873443 0.242932
vt 0.165655 0.967049
vt 0.132462 0.954395
vt 0.165655 0.829891
vt 0.912177 0.587822
vt 0.938485 0.595307
vt 0.299291 0.864771
vt 0.251221 0.871739
vt 0.046330 0.972727
vt 0.034148 0.952897
vt 0.073465 0.985122
vt 0.296732 0.925773
vt 0.316468 0.926401
vt 0.947974 0.963473
vt 0.938485 0.890262
vt 0.974243 0.947375
vt 0.956543 0.709698
vt 0.980501 0.587992
vt 1.000000 0.587822
vt 0.938485 0.706831
vt 0.941279 0.589058
vt 0.250362 0.350697
vt 0.190927 0.399587
vt 0.133058 0.369526
vt 0.250362 0.008736
vt 0.220101 0.029059
vt 0.580357 0.124722
vt 0.585789 0.053269
vt 0.598702 0.000000
vt 0.647609 0.254199
vt 0.600564 0.262061
vt 0.598702 0.124456
vt 0.217612 0.120217
vt 0.250362 0.483935
vt 0.192289 0.491550
vt 0.180387 0.404802
vt 0.153136 0.513140
vt 0.807613 0.235918
vt 0.835921 0.089738
vt 0.873443 0.085854
vt 0.852581 0.880012
vt 0.852581 0.932161
vt 0.777174 0.905247
vt 0.000000 0.920991
vt 0.009811 0.745726
vt 0.027196 0.944400
vt 0.946040 0.403168
vt 0.973331 0.388131
vt 0.947750 0.581751
vt 0.890505 0.034049
vt 0.857331 0.021838
vt 0.890505 0.002928
vt 0.598702 0.242890
vt 0.498928 0.262061
vt 0.194375 0.339630
vt 0.192258 0.242573
vt 0.250362 0.722774
vt 0.187968 0.742305
vt 0.240424 0.622311
vt 0.137385 0.728377
vt 0.198380 0.629063
vt 0.500780 0.412872
vt 0.545177 0.607028
vt 0.463774 0.623217
vt 0.807613 0.240595
vt 0.797049 0.257280
vt 0.729185 0.244776
vt 0.685830 0.483222
vt 0.728245 0.504000
vt 0.708049 0.653308
vt 0.250362 0.742305
vt 0.250362 0.829891
vt 0.136904 0.824085
vt 0.545177 0.262502
vt 0.488803 0.407092
vt 0.434637 0.408809
vt 0.668870 0.446054
vt 0.755945 0.470515
vt 0.293619 0.544396
vt 0.365695 0.556146
vt 0.350339 0.573459
vt 0.134626 0.632151
vt 0.682166 0.244828
vt 0.946040 0.303374
vt 0.974888 0.260508
vt 0.974888 0.350076
vt 0.412015 0.440743
vt 0.807613 0.085854
vt 0.335836 0.380361
vt 0.412015 0.384750
vt 0.685560 0.262061
vt 0.755945 0.296980
vt 0.335964 0.890525
vt 0.379035 0.898858
vt 0.230118 0.934927
vt 0.205635 0.937681
vt 0.250362 0.901463
vt 0.107737 0.863254
vt 0.105620 0.796960
vt 0.107737 0.779450
vt 0.354223 0.821325
vt 0.104495 0.761962
vt 0.100624 0.922050
vt 0.107737 0.888703
vt 0.982733 0.866661
vt 0.949638 0.841205
vt 0.982733 0.710842
vt 0.312520 0.811999
vt 0.272647 0.790213
vt 0.412015 0.819634
vt 0.412015 0.730926
vt 0.293520 0.559848
vt 0.293520 0.665389
vt 0.265988 0.683892
vt 0.412015 0.723039
vt 0.309944 0.585002
vt 0.938485 0.871673
vt 0.740629 0.845155
vt 0.740629 0.983433
vt 0.679477 0.851297
vt 0.268344 0.559848
vt 0.250362 0.397882
vt 0.286361 0.380361
vt 0.180838 0.928771
vt 0.165655 0.884646
vt 0.098890 0.969184
vt 0.107737 0.947937
vt 0.211271 0.831057
vt 0.231038 0.830370
vt 0.070858 0.953116
vt 0.591761 0.958593
vt 0.593456 0.978921
vt 0.471765 0.957172
vt 0.864379 0.079542
vt 0.857331 0.034049
vt 0.974769 0.034610
vt 0.469190 0.938951
vt 0.333748 0.000000
vt 0.512423 0.003219
vt 0.317770 0.362561
vt 0.802978 0.587822
vt 0.946040 0.580466
vt 0.833574 0.880012
vt 0.590409 0.276404
vt 0.086751 0.497833
vt 0.857331 0.003863
vt 0.838463 0.460114
vt 0.740629 0.827548
vt 0.066485 0.879841
vt 0.934892 0.140196
vt 0.953454 0.242301
vt 0.063986 0.399587
vt 0.116336 0.839579
vt 0.266936 0.829365
vt 0.335964 0.927701
vt 0.974243 0.871673
vt 1.000000 0.710842
vt 0.225040 0.399587
vt 0.150917 0.423908
vt 0.755945 0.925782
vt 0.027196 0.741791
vt 0.973331 0.587822
vt 0.747595 0.262061
vt 0.676738 0.632189
vt 0.126260 0.780387
vt 0.501724 0.262061
vt 0.739761 0.089074
vt 0.339644 0.927138
vt 0.214001 0.890480
vt 0.941815 0.735509
vt 0.250362 0.581091
vt 0.384845 0.730926
vt 0.705523 0.971878
vt 0.286361 0.549257
vt 0.470847 0.978036
vt 0.974769 0.066392
vn 0.012522 -0.998576 0.051847
vn -0.341037 -0.053008 -0.938554
vn -0.012521 0.998576 -0.051850
vn 0.341037 0.053008 0.938554
vn 0.939967 -0.005931 -0.341214
vn -0.939967 0.005931 0.341214
vn 0.012522 -0.998576 0.051850
vn -0.341035 -0.053008 -0.938555
vn -0.012521 0.998576 -0.051847
vn 0.341035 0.053008 0.938555
vn -0.939967 0.005931 0.341215
vn 0.869320 0.119114 -0.479629
vn 0.776055 -0.593310 -0.213660
vn -0.021973 -0.782281 -0.622517
vn 0.675039 -0.612171 0.411695
vn -0.104709 -0.356792 0.928281
vn -0.465499 -0.791436 0.396069
vn 0.851680 0.523301 -0.028077
vn 0.405255 0.697165 -0.591357
vn 0.052004 0.920042 -0.388348
vn 0.840175 0.151341 0.520737
vn 0.374187 0.502091 0.779656
vn 0.204108 -0.971770 -0.118137
vn 0.061769 -0.963713 0.259682
vn -0.548021 -0.835170 0.046144
vn 0.941710 0.300272 -0.151524
vn 0.802332 -0.515000 -0.301614
vn 0.333470 0.345444 -0.877192
vn 0.890152 -0.179353 0.418882
vn 0.896878 -0.306253 0.319071
vn -0.968166 -0.224991 0.109703
vn -0.985565 0.105564 0.132145
vn 0.203619 -0.114902 -0.972259
vn -0.406232 -0.591632 -0.696341
vn -0.882168 0.015595 0.470626
vn 0.262154 -0.778893 0.569720
vn 0.335612 0.941984 0.001404
vn 0.406354 -0.895444 -0.181677
vn -0.331858 -0.938292 -0.097201
vn 0.962432 -0.245277 -0.116367
vn -0.814234 -0.117161 -0.568529
vn -0.001831 -0.974944 0.222419
vn -0.926086 0.159143 -0.342110
vn 0.269631 0.614643 -0.741264
vn 0.057558 0.603992 -0.794885
vn 0.211280 -0.965300 -0.153447
vn 0.062099 -0.994779 -0.080989
vn 0.983532 0.180728 -0.001590
vn -0.533891 -0.815485 -0.223395
vn -0.719199 0.586749 -0.372051
vn 0.513565 0.742210 -0.430494
vn -0.985716 0.167560 -0.016964
vn 0.951079 -0.077059 -0.299081
vn 0.984680 -0.149327 -0.089846
vn 0.471145 0.868465 0.154180
vn 0.180395 -0.515275 0.837794
vn 0.856533 -0.390484 -0.337413
vn -0.788202 -0.388287 -0.477432
vn -0.044221 0.881938 -0.469287
vn 0.939422 0.264059 0.218536
vn -0.201831 -0.848414 0.489345
vn 0.333750 -0.942106 -0.031465
vn 0.186010 -0.859706 0.475661
vn -0.344676 -0.646474 0.680624
vn 0.587573 -0.556780 0.587115
vn 0.980377 0.188269 -0.058382
vn 0.799066 -0.000061 -0.601215
vn 0.552904 0.813623 0.179601
vn 0.625080 -0.302835 -0.719382
vn 0.039277 0.230873 -0.972167
vn 0.342540 0.643849 -0.684164
vn 0.332377 -0.534593 -0.776971
vn -0.374706 -0.428297 -0.822260
vn 0.800073 -0.112033 0.589343
vn 0.352702 0.389660 0.850703
vn -0.037538 0.421369 0.906095
vn 0.022310 0.999152 0.034620
vn 0.819575 -0.564867 -0.095737
vn 0.965910 -0.170224 0.195041
vn 0.970988 -0.156608 0.180710
vn 0.513250 0.696398 0.501602
vn 0.598759 -0.772102 -0.212949
vn 0.417267 -0.833328 -0.362565
vn -0.502622 -0.672922 -0.542722
vn -0.828516 0.172613 -0.532670
vn 0.004028 0.122684 -0.992431
vn -0.787896 0.273873 0.551500
vn -0.832118 -0.415082 0.367748
vn -0.308756 0.947691 -0.080691
vn -0.418104 0.803247 -0.424177
vn -0.086306 0.824793 0.558763
vn -0.967711 -0.245186 -0.058138
vn -0.171972 0.984710 -0.026612
vn -0.884579 0.439436 -0.156163
vn 0.445359 0.307348 -0.840948
vn 0.125858 0.224067 -0.966399
vn -0.976623 -0.046663 -0.209784
vn -0.239155 -0.828967 0.505587
vn -0.831334 0.548409 -0.090174
vn -0.168859 -0.636982 0.752129
vn 0.831629 -0.049989 -0.553026
vn 0.541124 -0.084078 0.836695
vn -0.150121 -0.988647 -0.004669
vn -0.685354 -0.620075 -0.381756
vn -0.883358 -0.468368 0.017304
vn -0.905637 0.417982 -0.071139
vn 0.683187 0.200720 -0.702078
vn 0.906740 0.031989 -0.420475
vn 0.147936 -0.973365 -0.175143
vn 0.661519 0.063753 -0.747185
vn -0.176641 0.975524 -0.130924
vn -0.268777 -0.612323 -0.743492
vn -0.946013 0.117649 -0.301981
vn -0.877846 0.438977 0.191536
vn 0.277963 -0.914548 -0.293741
vn -0.920774 -0.088412 -0.379894
vn -0.256539 0.895383 -0.363933
vn 0.988020 0.100694 0.116950
vn -0.151402 -0.874966 -0.459822
vn -0.998138 0.056429 0.022706
vn -0.153661 0.965728 -0.209052
vn -0.354106 -0.509079 0.784478
vn -0.870158 -0.012165 0.492623
vn 0.244309 0.968709 0.043768
vn -0.989746 -0.076235 0.120640
vn -0.544328 -0.838130 0.034700
vn -0.776727 -0.229865 0.586352
vn -0.639637 0.246040 0.728202
vn -0.218513 0.972594 0.079409
vn -0.405805 0.788141 -0.462691
vn -0.632069 0.519578 -0.574847
vn -0.738182 0.165746 -0.653890
vn -0.317881 0.619343 0.717856
vn 0.872951 0.377117 -0.309366
vn 0.127232 0.311350 0.941710
vn 0.052013 0.834527 0.548506
vn -0.008423 -0.185522 0.982574
vn -0.497941 0.787432 0.363324
vn -0.489835 0.799066 0.348646
vn -0.967093 0.252283 -0.032938
vn -0.525589 -0.725260 -0.444696
vn -0.976176 0.078268 -0.202372
vn 0.521572 0.715625 0.464590
vn -0.309542 -0.735080 -0.603193
vn -0.845882 0.524644 0.095706
s off
f 5/1/1 6/2/1 2/3/1
f 6/4/2 7/5/2 2/6/2
f 7/5/3 8/7/3 4/8/3
f 8/9/4 5/10/4 4/11/4
f 1/12/5 2/13/5 4/14/5
f 8/15/6 7/16/6 5/17/6
f 1/18/7 5/1/7 2/3/7
f 7/5/8 3/19/8 2/6/8
f 3/19/9 7/5/9 4/8/9
f 5/10/10 1/20/10 4/11/10
f 2/13/5 3/21/5 4/14/5
f 7/16/11 6/22/11 5/17/11
s 1
f 13/23/12 10/24/13 65/25/14
f 14/26/15 70/27/16 67/28/17
f 24/29/18 9/30/19 66/31/20
f 9/30/19 13/32/12 66/31/20
f 11/33/21 68/34/22 14/35/15
f 43/36/23 12/37/24 108/38/25
f 42/39/26 11/40/21 14/41/15
f 44/42/27 14/41/15 43/43/23
f 20/44/28 16/45/29 15/46/30
f 18/47/31 17/48/32 15/49/30
f 19/50/33 15/46/30 23/51/34
f 17/48/32 22/52/35 15/49/30
f 22/53/35 23/54/34 21/55/36
f 42/56/26 24/29/18 86/57/37
f 10/24/13 25/58/38 88/59/39
f 9/60/19 24/61/18 26/62/40
f 13/23/12 26/62/40 25/58/38
f 48/63/41 47/64/42 32/65/43
f 48/66/41 46/67/44 27/68/45
f 29/69/46 35/70/47 33/71/48
f 39/72/49 40/73/50 45/74/51
f 36/75/52 35/76/47 29/77/46
f 47/78/42 29/69/46 34/79/53
f 50/80/54 34/81/53 27/68/45
f 25/82/38 43/36/23 88/83/39
f 24/61/18 42/39/26 44/42/27
f 26/62/40 44/42/27 25/58/38
f 11/33/21 42/84/26 106/85/55
f 38/86/56 39/87/49 37/88/57
f 31/89/58 29/77/46 47/64/42
f 32/90/43 28/91/59 48/92/41
f 49/93/60 50/80/54 28/94/59
f 30/95/61 47/78/42 49/96/60
f 57/97/62 53/98/63 118/99/64
f 53/100/63 57/101/62 59/102/65
f 56/103/66 54/104/67 126/105/68
f 58/106/69 131/107/70 122/108/71
f 55/109/72 57/97/62 124/110/73
f 55/111/72 124/112/73 58/106/69
f 52/113/74 56/114/66 119/115/75
f 40/116/50 39/117/49 41/118/76
f 17/119/32 18/120/31 19/121/33
f 20/122/28 19/121/33 18/120/31
f 31/123/58 27/124/45 51/125/77
f 27/68/45 34/81/53 51/126/77
f 41/118/76 45/127/51 40/116/50
f 45/128/51 41/129/76 37/130/57
f 23/131/34 22/132/35 17/119/32
f 59/102/65 60/133/78 56/134/66
f 53/135/63 59/136/65 118/137/64
f 54/138/67 56/134/66 58/139/69
f 58/139/69 60/133/78 57/101/62
f 59/136/65 52/113/74 119/115/75
f 64/140/79 61/141/80 142/142/81
f 62/143/82 63/144/83 140/145/84
f 61/146/80 64/147/79 63/144/83
f 75/148/85 69/149/86 65/150/14
f 76/151/87 74/152/88 67/28/17
f 87/153/89 86/57/37 71/154/90
f 71/154/90 66/31/20 75/155/85
f 73/156/91 76/157/87 70/158/16
f 109/159/92 108/38/25 74/152/88
f 107/160/93 110/161/94 76/162/87
f 110/161/94 109/163/92 76/162/87
f 82/164/95 81/165/96 77/166/97
f 80/167/98 78/168/99 79/169/100
f 81/170/96 85/171/101 77/172/97
f 79/173/100 77/174/97 84/175/102
f 84/176/102 83/177/103 85/178/101
f 107/179/93 106/180/55 87/153/89
f 72/181/104 65/150/14 89/182/105
f 71/183/90 75/184/85 87/185/89
f 75/184/85 72/186/104 90/187/106
f 114/188/107 96/189/108 94/190/109
f 114/191/107 95/192/110 112/193/111
f 93/194/112 98/195/113 97/196/114
f 103/197/115 101/198/116 111/199/117
f 100/200/118 95/201/110 93/202/112
f 113/203/119 116/204/120 98/195/113
f 116/205/120 112/206/111 91/207/121
f 89/182/105 88/83/39 109/159/92
f 87/185/89 90/187/106 107/160/93
f 90/187/106 89/208/105 110/161/94
f 73/156/91 68/34/22 107/209/93
f 102/210/122 101/211/116 103/212/115
f 95/201/110 114/188/107 113/213/119
f 96/214/108 114/191/107 112/193/111
f 115/215/123 92/216/124 116/205/120
f 94/217/109 115/218/123 116/204/120
f 129/219/125 128/220/126 118/99/64
f 121/221/127 133/222/128 129/223/125
f 127/224/129 126/105/68 123/225/130
f 130/226/131 123/225/130 122/108/71
f 125/227/132 124/110/73 129/219/125
f 125/228/132 130/226/131 124/112/73
f 120/229/133 119/115/75 127/230/129
f 104/231/134 105/232/135 103/233/115
f 79/234/100 81/235/96 80/236/98
f 82/237/95 80/236/98 81/235/96
f 95/238/110 100/239/118 117/240/136
f 91/207/121 117/241/136 98/242/113
f 105/232/135 104/231/134 111/243/117
f 111/244/117 101/245/116 105/246/135
f 85/247/101 81/248/96 79/249/100
f 133/222/128 120/250/133 127/251/129
f 121/252/127 118/137/64 133/253/128
f 123/254/130 130/255/131 127/251/129
f 130/255/131 125/198/132 129/223/125
f 133/253/128 132/256/137 119/115/75
f 141/257/138 142/258/81 136/259/139
f 138/260/140 137/261/141 140/262/84
f 136/259/139 138/263/140 139/22/142
f 69/264/86 13/23/12 65/25/14
f 12/37/24 14/26/15 67/28/17
f 86/57/37 24/29/18 66/31/20
f 13/32/12 69/265/86 66/31/20
f 68/34/22 70/158/16 14/35/15
f 12/37/24 67/28/17 108/38/25
f 44/42/27 42/39/26 14/41/15
f 14/41/15 12/266/24 43/43/23
f 19/50/33 20/44/28 15/46/30
f 16/267/29 18/47/31 15/49/30
f 15/46/30 21/268/36 23/51/34
f 22/52/35 21/269/36 15/49/30
f 106/180/55 42/56/26 86/57/37
f 65/25/14 10/24/13 88/59/39
f 13/23/12 9/60/19 26/62/40
f 10/24/13 13/23/12 25/58/38
f 47/64/42 30/270/61 32/65/43
f 31/271/58 48/66/41 27/68/45
f 34/79/53 29/69/46 33/71/48
f 37/272/57 39/72/49 45/74/51
f 31/89/58 36/75/52 29/77/46
f 50/273/54 47/78/42 34/79/53
f 46/67/44 50/80/54 27/68/45
f 43/36/23 108/38/25 88/83/39
f 26/62/40 24/61/18 44/42/27
f 44/42/27 43/43/23 25/58/38
f 68/34/22 11/33/21 106/85/55
f 48/63/41 31/89/58 47/64/42
f 28/91/59 46/274/44 48/92/41
f 50/80/54 46/67/44 28/94/59
f 47/78/42 50/273/54 49/96/60
f 128/220/126 57/97/62 118/99/64
f 57/101/62 60/133/78 59/102/65
f 54/104/67 122/108/71 126/105/68
f 54/104/67 58/106/69 122/108/71
f 57/97/62 128/220/126 124/110/73
f 124/112/73 131/107/70 58/106/69
f 56/114/66 126/275/68 119/115/75
f 39/117/49 38/276/56 41/118/76
f 36/277/52 31/123/58 51/125/77
f 34/81/53 33/278/48 51/126/77
f 41/129/76 38/279/56 37/130/57
f 19/121/33 23/131/34 17/119/32
f 52/280/74 59/102/65 56/134/66
f 59/136/65 132/256/137 118/137/64
f 56/134/66 60/133/78 58/139/69
f 55/281/72 58/139/69 57/101/62
f 132/256/137 59/136/65 119/115/75
f 61/141/80 135/282/143 142/142/81
f 137/283/141 62/143/82 140/145/84
f 62/143/82 61/146/80 63/144/83
f 72/181/104 75/148/85 65/150/14
f 70/27/16 76/151/87 67/28/17
f 86/57/37 66/31/20 71/154/90
f 66/31/20 69/265/86 75/155/85
f 68/34/22 73/156/91 70/158/16
f 108/38/25 67/28/17 74/152/88
f 73/284/91 107/160/93 76/162/87
f 109/163/92 74/285/88 76/162/87
f 78/127/99 82/164/95 77/166/97
f 78/168/99 77/286/97 79/169/100
f 85/171/101 83/287/103 77/172/97
f 77/174/97 83/288/103 84/175/102
f 106/180/55 86/57/37 87/153/89
f 65/150/14 88/83/39 89/182/105
f 75/184/85 90/187/106 87/185/89
f 72/186/104 89/208/105 90/187/106
f 113/213/119 114/188/107 94/190/109
f 95/192/110 91/289/121 112/193/111
f 99/290/144 93/194/112 97/196/114
f 104/291/134 103/197/115 111/199/117
f 99/292/144 100/200/118 93/202/112
f 93/194/112 113/203/119 98/195/113
f 98/242/113 116/205/120 91/207/121
f 88/83/39 108/38/25 109/159/92
f 90/187/106 110/161/94 107/160/93
f 89/208/105 109/163/92 110/161/94
f 68/34/22 106/85/55 107/209/93
f 93/202/112 95/201/110 113/213/119
f 92/293/124 96/214/108 112/193/111
f 92/216/124 112/206/111 116/205/120
f 113/203/119 94/217/109 116/204/120
f 121/294/127 129/219/125 118/99/64
f 133/222/128 134/295/145 129/223/125
f 126/105/68 122/108/71 123/225/130
f 131/107/70 130/226/131 122/108/71
f 124/110/73 128/220/126 129/219/125
f 130/226/131 131/107/70 124/112/73
f 119/115/75 126/275/68 127/230/129
f 105/232/135 102/296/122 103/233/115
f 91/297/121 95/238/110 117/240/136
f 117/241/136 97/298/114 98/242/113
f 101/245/116 102/299/122 105/246/135
f 84/300/102 85/247/101 79/249/100
f 134/295/145 133/222/128 127/251/129
f 118/137/64 132/256/137 133/253/128
f 130/255/131 134/295/145 127/251/129
f 134/295/145 130/255/131 129/223/125
f 120/229/133 133/253/128 119/115/75
f 142/258/81 135/301/143 136/259/139
f 139/302/142 138/260/140 140/262/84
f 141/257/138 136/259/139 139/22/142
