# Blender v2.62 (sub 0) OBJ File: 'test_tank.blend'
# www.blender.org
v 1.528899 1.582466 0.017286
v -1.528898 1.582466 0.017286
v 1.554127 1.582465 1.262728
v -1.494358 1.582466 1.501202
v -2.253593 1.582466 0.295591
v -2.134056 1.582466 1.409973
v -2.440370 1.582466 1.164954
v -2.477725 1.582466 0.734858
v 1.969693 1.582466 0.160897
v 1.954751 1.582465 1.111346
v 2.223709 1.582466 0.481175
v 2.268536 1.582466 0.820952
v 2.268536 0.945760 0.820951
v 2.223709 0.945760 0.481175
v 1.954751 0.945760 1.111346
v 1.969693 0.945761 0.160896
v -2.477725 0.945761 0.734858
v -2.440370 0.945761 1.164953
v -2.134056 0.945761 1.409973
v -2.253593 0.945761 0.295591
v -1.494358 0.945761 1.501202
v 1.554127 0.945760 1.262728
v -1.528898 0.945761 0.017285
v 1.528899 0.945761 0.017285
v 1.528899 -1.574942 0.017285
v -1.528898 -1.574942 0.017285
v 1.554127 -1.574943 1.262728
v -1.494358 -1.574942 1.501202
v -2.253593 -1.574942 0.295591
v -2.134057 -1.574942 1.409973
v -2.440370 -1.574942 1.164953
v -2.477725 -1.574942 0.734858
v 1.969693 -1.574942 0.160896
v 1.954751 -1.574943 1.111346
v 2.223709 -1.574943 0.481175
v 2.268535 -1.574943 0.820951
v 2.268535 -0.938238 0.820952
v 2.223709 -0.938237 0.481175
v 1.954751 -0.938238 1.111346
v 1.969693 -0.938237 0.160897
v -2.477725 -0.938237 0.734858
v -2.440370 -0.938237 1.164954
v -2.134057 -0.938237 1.409973
v -2.253593 -0.938237 0.295591
v -1.494358 -0.938237 1.501202
v 1.554127 -0.938238 1.262728
v -1.528898 -0.938237 0.017286
v 1.528899 -0.938237 0.017286
v 1.460857 0.907227 0.455785
v 1.460856 -0.907227 0.455785
v -1.952751 -0.907227 0.455785
v -1.952750 0.907228 0.455785
v 1.935272 0.907226 1.491181
v 1.935270 -0.907228 1.491181
v -1.952752 -0.907226 1.491181
v -1.952751 0.907227 1.491181
v 1.577028 0.740042 1.688924
v -1.594506 0.740042 1.688924
v -1.594507 -0.740042 1.688924
v 1.577026 -0.740043 1.688924
v 0.143323 -0.361988 1.543267
v -1.247595 -0.361987 1.543267
v -1.247595 0.361987 1.543267
v 0.143323 0.361987 1.543267
v -0.552137 -0.650043 1.543267
v -0.552136 0.650043 1.543267
v -0.552136 0.650043 1.792869
v 0.143323 0.361987 1.792869
v -1.247595 0.361987 1.792869
v -0.552137 -0.650043 1.792869
v 0.143323 -0.361988 1.792869
v -1.247595 -0.361987 1.792869
v 0.872877 0.689582 1.891395
v 0.872876 -0.689583 1.891395
v -1.617964 -0.554764 1.891395
v -1.617964 0.554764 1.891395
v -0.552137 -0.996225 1.891395
v -0.552135 0.996225 1.891395
v 0.872877 0.689582 2.636510
v -0.552135 0.996225 2.636510
v -1.617964 0.554764 2.636510
v -0.552137 -0.996225 2.636510
v 0.872876 -0.689583 2.636510
v -1.617964 -0.554764 2.636510
v 0.557756 0.523103 2.776303
v 0.557755 -0.523104 2.776303
v -1.331747 -0.420833 2.776303
v -1.331747 0.420833 2.776303
v -0.523232 -0.755717 2.776303
v -0.523231 0.755716 2.776303
v -1.546079 -0.385356 2.522742
v -1.546079 0.385356 2.522742
v -1.546079 0.385356 2.005163
v -1.546079 -0.385356 2.005163
v -1.762239 -0.385356 2.005163
v -1.762239 0.385356 2.005163
v -1.762239 0.385356 2.522742
v -1.762239 -0.385356 2.522742
v -1.708474 -0.105327 2.429019
v -1.708474 0.105328 2.429019
v -1.708474 0.105328 2.098886
v -1.708474 -0.105327 2.098886
v -1.708474 -0.184914 2.263952
v -1.708474 0.184915 2.263952
v -2.918694 0.149469 2.263952
v -2.918694 0.085138 2.397377
v -2.918694 0.085138 2.130528
v -2.918694 -0.085137 2.397377
v -2.918694 -0.149468 2.263952
v -2.918694 -0.085137 2.130528
vt 0.819546 0.110295
vt 0.783866 0.110186
vt 0.787545 0.025822
vt 0.816385 0.025910
vt 0.537119 0.000000
vt 0.543392 0.021509
vt 0.514551 0.021597
vt 0.520692 0.000050
vt 0.537251 0.043055
vt 0.520824 0.043106
vt 0.307590 0.748583
vt 0.309798 0.663694
vt 0.326226 0.663745
vt 0.327913 0.748645
vt 0.075374 0.804277
vt 0.077105 0.733688
vt 0.093533 0.733637
vt 0.095697 0.804215
vt 0.122527 0.923831
vt 0.122736 0.838973
vt 0.144119 0.838941
vt 0.148981 0.923792
vt 0.095697 0.923628
vt 0.101049 0.838809
vt 0.239436 0.838848
vt 0.234574 0.923699
vt 0.212982 0.838809
vt 0.213191 0.923667
vt 0.191504 0.923831
vt 0.186152 0.839012
vt 0.478872 0.020840
vt 0.514551 0.020950
vt 0.506809 0.041790
vt 0.486486 0.041727
vt 0.486614 0.000000
vt 0.506937 0.000062
vt 0.654647 0.837314
vt 0.654903 0.920824
vt 0.580548 0.921052
vt 0.580292 0.837542
vt 0.064996 0.878632
vt 0.065224 0.804277
vt 0.080294 0.804323
vt 0.080066 0.878678
vt 0.080550 0.887856
vt 0.080294 0.804318
vt 0.095441 0.804277
vt 0.095697 0.887815
vt 0.312510 0.832183
vt 0.312766 0.748645
vt 0.327913 0.748686
vt 0.327657 0.832224
vt 0.314845 0.906620
vt 0.314617 0.832264
vt 0.327685 0.832224
vt 0.327913 0.906580
vt 0.553440 0.837314
vt 0.553668 0.911670
vt 0.488248 0.911870
vt 0.488020 0.837515
vt 0.632542 0.706156
vt 0.632614 0.771127
vt 0.562209 0.811584
vt 0.506111 0.778807
vt 0.575535 0.651992
vt 0.488020 0.702281
vt 0.119173 0.763088
vt 0.096045 0.761356
vt 0.095697 0.685958
vt 0.118714 0.663694
vt 0.654903 0.783982
vt 0.654809 0.698334
vt 0.845639 0.331847
vt 0.822622 0.309584
vt 0.846098 0.232454
vt 0.822970 0.234186
vt 0.488141 0.794106
vt 0.562092 0.837314
vt 0.686672 0.936189
vt 0.655213 0.920224
vt 0.686264 0.803133
vt 0.654903 0.819290
vt 0.780851 0.935900
vt 0.780443 0.802844
vt 0.937510 0.661337
vt 0.937879 0.781559
vt 0.830836 0.781887
vt 0.830467 0.661666
vt 0.966361 0.232085
vt 0.844851 0.157102
vt 0.965114 0.156733
vt 0.965901 0.331478
vt 0.238189 0.838809
vt 0.117926 0.838440
vt 0.239436 0.763457
vt 0.238977 0.664063
vt 0.422508 0.822495
vt 0.414565 0.855918
vt 0.380377 0.794834
vt 0.328321 0.826599
vt 0.464468 0.794576
vt 0.478871 0.813130
vt 0.380163 0.724987
vt 0.327913 0.693542
vt 0.413975 0.663694
vt 0.422123 0.697068
vt 0.478543 0.706087
vt 0.464254 0.724730
vt 0.918860 0.644567
vt 0.849014 0.644781
vt 0.095697 0.733541
vt 0.064149 0.733637
vt 0.063934 0.663791
vt 0.095483 0.663694
vt 0.918737 0.604294
vt 0.848890 0.604508
vt 0.478871 0.905086
vt 0.438585 0.905210
vt 0.437772 0.856042
vt 0.478058 0.855918
vt 0.478319 0.953385
vt 0.438033 0.953508
vt 0.821138 0.900434
vt 0.780851 0.900311
vt 0.781665 0.851143
vt 0.821951 0.851266
vt 0.781113 0.802844
vt 0.821399 0.802967
vt 0.783866 0.021448
vt 0.679151 0.090490
vt 0.737521 0.001643
vt 0.679208 0.040090
vt 0.783809 0.071848
vt 0.725497 0.110295
vt 0.679151 0.331410
vt 0.679829 0.110295
vt 0.821944 0.331847
vt 0.822622 0.110733
vt 0.892588 0.956939
vt 0.893125 0.781887
vt 0.933690 0.798141
vt 0.933252 0.940934
vt 0.688068 0.331847
vt 0.687127 0.604294
vt 0.655671 0.356598
vt 0.654903 0.578838
vt 0.655416 0.771889
vt 0.830467 0.771352
vt 0.814433 0.802406
vt 0.671640 0.802844
vt 0.511096 0.059400
vt 0.512036 0.331847
vt 0.479639 0.307096
vt 0.478872 0.084856
vt 0.679151 0.331335
vt 0.678325 0.092131
vt 0.829955 0.604294
vt 0.654903 0.604831
vt 0.854357 0.571563
vt 0.855183 0.332360
vt 0.654556 0.538225
vt 0.654903 0.651455
vt 0.479504 0.538762
vt 0.479852 0.651992
vt 0.478871 0.332384
vt 0.653923 0.331847
vt 0.269955 0.052651
vt 0.470902 0.047019
vt 0.478871 0.261142
vt 0.239436 0.267539
vt 0.435871 0.313543
vt 0.255818 0.311792
vt 0.365605 0.331847
vt 0.296136 0.331787
vt 0.293328 0.023698
vt 0.446590 0.017005
vt 0.394269 0.001120
vt 0.339349 0.000000
vt 0.301547 0.886937
vt 0.301675 0.928448
vt 0.240248 0.928636
vt 0.240120 0.887126
vt 0.884049 0.028563
vt 0.884175 0.069555
vt 0.822748 0.069744
vt 0.822622 0.028752
vt 0.884329 0.119942
vt 0.822902 0.120130
vt 0.301430 0.848561
vt 0.240003 0.848750
vt 0.884441 0.156545
vt 0.823014 0.156733
vt 0.937879 0.830521
vt 0.937998 0.791758
vt 0.999306 0.830709
vt 0.999425 0.791946
vt 0.938211 0.722457
vt 0.999637 0.722645
vt 0.938430 0.651019
vt 0.999857 0.651208
vt 0.000640 0.709792
vt 0.000781 0.663694
vt 0.062066 0.709980
vt 0.062208 0.663883
vt 0.938573 0.604294
vt 1.000000 0.604483
vt 0.000000 0.918410
vt 0.061427 0.918598
vt 0.300863 0.663694
vt 0.239436 0.663883
vt 0.239436 0.402552
vt 0.231467 0.616675
vt 0.030519 0.611043
vt 0.000000 0.396155
vt 0.196436 0.350152
vt 0.016382 0.351902
vt 0.126169 0.331847
vt 0.056700 0.331908
vt 0.053892 0.639996
vt 0.207154 0.646689
vt 0.099913 0.663694
vt 0.154834 0.662574
vt 0.339349 0.663694
vt 0.293328 0.639996
vt 0.394269 0.662574
vt 0.446590 0.646689
vt 0.269955 0.611043
vt 0.470902 0.616675
vt 0.435871 0.350152
vt 0.255818 0.351902
vt 0.296136 0.331908
vt 0.478871 0.402552
vt 0.239436 0.396155
vt 0.916610 0.339353
vt 0.917177 0.524219
vt 0.855183 0.339541
vt 0.855750 0.524408
vt 0.917422 0.604106
vt 0.918062 0.395488
vt 0.979488 0.395676
vt 0.978849 0.604294
vt 0.831018 0.828613
vt 0.831161 0.781887
vt 0.892445 0.828801
vt 0.892588 0.782076
vt 0.918203 0.349391
vt 0.979630 0.349579
vt 0.830799 0.900050
vt 0.892226 0.900239
vt 0.830586 0.969351
vt 0.892013 0.969539
vt 0.830467 1.008114
vt 0.891894 1.008302
vt 0.946148 0.119942
vt 0.946261 0.156545
vt 0.884834 0.156733
vt 0.884722 0.120130
vt 0.917295 0.562595
vt 0.855868 0.562784
vt 0.945994 0.069555
vt 0.884567 0.069744
vt 0.945868 0.028563
vt 0.884441 0.028752
vt 0.855995 0.604294
vt 0.207154 0.017005
vt 0.053892 0.023698
vt 0.154834 0.001120
vt 0.099913 0.000000
vt 0.231467 0.047019
vt 0.030519 0.052651
vt 0.016382 0.311792
vt 0.196436 0.313543
vt 0.056700 0.331787
vt 0.000000 0.267539
vt 0.239436 0.261142
vn -0.000000 0.000000 1.000000
vn -1.000000 -0.000000 -0.000000
vn -0.026136 0.000000 0.999658
vn -0.026136 -0.000000 -0.999658
vn -0.026373 -0.900452 -0.434156
vn -0.026373 -0.900452 -0.434155
vn -0.026373 -0.900452 0.434155
vn -0.026373 -0.900452 0.434156
vn -0.026373 0.900452 -0.434155
vn -0.026373 0.900452 -0.434156
vn -0.026373 0.900452 0.434156
vn -0.026373 0.900452 0.434155
vn 1.000000 0.000000 0.000000
vn 0.000000 -1.000000 0.000000
vn 0.000000 1.000000 -0.000000
vn 0.000000 0.000000 -1.000000
vn 0.109595 0.509305 0.853579
vn -0.196710 0.474923 0.857761
vn 0.109595 -0.509305 0.853579
vn -0.196711 -0.474923 0.857761
vn -0.438867 0.000000 0.898552
vn 0.405506 -0.000000 0.914092
vn 1.000000 -0.000001 0.000000
vn -0.382669 -0.923885 -0.000000
vn 0.210370 -0.977622 0.000000
vn -0.382668 0.923886 0.000000
vn 0.210371 0.977622 0.000000
vn 0.112659 0.271995 -0.955681
vn 0.042835 0.199061 -0.979050
vn -0.112659 0.271995 -0.955681
vn 0.042835 -0.199061 -0.979050
vn 0.112659 -0.271995 -0.955681
vn -0.112659 -0.271995 -0.955681
vn -0.257081 0.000000 -0.966390
vn 0.133835 -0.000000 -0.991004
vn 0.382668 -0.923886 0.000000
vn 0.382669 0.923885 0.000000
vn 0.483247 -0.000001 0.875484
vn -0.000000 -0.763645 0.645636
vn -0.483247 0.000000 0.875484
vn 0.000000 0.763645 0.645636
vn -1.000000 0.000001 -0.000000
vn -1.000000 0.000001 -0.000001
vn 0.909112 -0.000000 -0.416553
vn 0.909112 -0.000001 -0.416551
vn 0.783494 -0.000000 -0.621399
vn 0.991409 0.000000 -0.130795
vn 0.679223 -0.000000 0.733932
vn 0.309774 0.000000 -0.950810
vn 0.353473 -0.000000 0.935445
vn -0.624646 -0.000000 0.780908
vn -0.996249 -0.000000 0.086527
vn -0.890748 0.000000 -0.454497
vn -0.141184 -0.000000 0.989983
vn -0.358504 0.000000 -0.933528
vn 0.077989 -0.000000 0.996954
vn -0.000001 -1.000000 -0.000000
vn 0.000001 -1.000000 -0.000001
vn 0.000000 -1.000000 -0.000001
vn 0.000001 -1.000000 -0.000000
vn -0.000001 -1.000000 -0.000001
s off
f 103/1/1 104/2/1 105/3/1
f 103/1/1 105/3/1 109/4/1
f 110/5/2 109/6/2 105/7/2
f 110/5/2 105/7/2 107/8/2
f 109/6/2 108/9/2 106/10/2
f 109/6/2 106/10/2 105/7/2
f 100/11/3 106/12/3 108/13/3
f 100/11/3 108/13/3 99/14/3
f 102/15/4 110/16/4 107/17/4
f 102/15/4 107/17/4 101/18/4
f 103/19/5 109/20/5 110/21/5
f 103/19/6 110/21/6 102/22/6
f 99/23/7 108/24/7 103/19/7
f 108/24/8 109/20/8 103/19/8
f 101/25/9 107/26/9 104/27/9
f 107/26/10 105/28/10 104/27/10
f 104/27/11 105/28/11 106/29/11
f 104/27/12 106/29/12 100/30/12
f 103/31/13 104/32/13 100/33/13
f 103/31/13 100/33/13 99/34/13
f 102/35/13 101/36/13 104/32/13
f 102/35/13 104/32/13 103/31/13
f 95/37/2 98/38/2 97/39/2
f 95/37/2 97/39/2 96/40/2
f 91/41/1 92/42/1 97/43/1
f 91/41/1 97/43/1 98/44/1
f 94/45/14 91/46/14 98/47/14
f 94/45/14 98/47/14 95/48/14
f 92/49/15 93/50/15 96/51/15
f 92/49/15 96/51/15 97/52/15
f 93/53/16 94/54/16 95/55/16
f 93/53/16 95/55/16 96/56/16
f 94/57/13 93/58/13 92/59/13
f 94/57/13 92/59/13 91/60/13
f 90/61/1 88/62/1 87/63/1
f 90/61/1 87/63/1 89/64/1
f 85/65/1 90/61/1 86/66/1
f 90/61/1 89/64/1 86/66/1
f 80/67/17 90/68/17 85/69/17
f 80/67/17 85/69/17 79/70/17
f 81/71/18 88/62/18 80/72/18
f 88/62/18 90/61/18 80/72/18
f 83/73/19 86/74/19 82/75/19
f 86/74/19 89/76/19 82/75/19
f 82/77/20 89/64/20 87/63/20
f 82/77/20 87/63/20 84/78/20
f 84/78/21 87/63/21 88/62/21
f 84/78/21 88/62/21 81/71/21
f 79/79/22 85/80/22 83/81/22
f 85/80/22 86/82/22 83/81/22
f 73/83/23 79/79/23 83/81/23
f 73/83/23 83/81/23 74/84/23
f 75/85/2 84/86/2 81/87/2
f 75/85/2 81/87/2 76/88/2
f 77/89/24 82/75/24 84/90/24
f 77/89/24 84/90/24 75/91/24
f 74/92/25 83/73/25 82/75/25
f 74/92/25 82/75/25 77/89/25
f 76/93/26 81/94/26 80/67/26
f 76/93/26 80/67/26 78/95/26
f 78/95/27 80/67/27 79/70/27
f 78/95/27 79/70/27 73/96/27
f 67/97/28 78/98/28 68/99/28
f 78/98/29 73/100/29 68/99/29
f 69/101/30 76/102/30 67/97/30
f 76/102/30 78/98/30 67/97/30
f 71/103/31 74/104/31 77/105/31
f 71/103/32 77/105/32 70/106/32
f 70/106/33 77/105/33 75/107/33
f 70/106/33 75/107/33 72/108/33
f 72/109/34 75/85/34 69/110/34
f 75/85/34 76/88/34 69/110/34
f 68/99/35 73/100/35 74/104/35
f 68/99/35 74/104/35 71/103/35
f 64/111/23 68/112/23 71/113/23
f 64/111/23 71/113/23 61/114/23
f 62/115/2 72/109/2 69/110/2
f 62/115/2 69/110/2 63/116/2
f 65/117/24 70/118/24 72/119/24
f 65/117/24 72/119/24 62/120/24
f 61/121/36 71/122/36 70/118/36
f 61/121/36 70/118/36 65/117/36
f 63/123/26 69/124/26 67/125/26
f 63/123/26 67/125/26 66/126/26
f 66/126/37 67/125/37 68/127/37
f 66/126/37 68/127/37 64/128/37
f 66/129/16 65/130/16 63/131/16
f 65/130/16 62/132/16 63/131/16
f 64/133/16 61/134/16 66/129/16
f 61/134/16 65/130/16 66/129/16
f 57/135/1 58/136/1 60/137/1
f 58/136/1 59/138/1 60/137/1
f 54/139/38 53/140/38 57/141/38
f 54/139/38 57/141/38 60/142/38
f 55/143/39 54/144/39 59/145/39
f 54/144/39 60/146/39 59/145/39
f 56/147/40 55/148/40 59/149/40
f 56/147/40 59/149/40 58/150/40
f 53/151/41 56/152/41 58/153/41
f 53/151/41 58/153/41 57/154/41
f 52/155/15 56/152/15 49/156/15
f 56/152/15 53/151/15 49/156/15
f 51/157/42 55/148/42 56/147/42
f 51/157/43 56/147/43 52/158/43
f 50/159/14 54/144/14 55/143/14
f 50/159/14 55/143/14 51/160/14
f 49/161/44 53/162/44 50/163/44
f 53/162/45 54/164/45 50/163/45
f 51/165/16 52/166/16 50/163/16
f 52/166/16 49/161/16 50/163/16
f 46/167/15 48/168/15 47/169/15
f 46/167/15 47/169/15 45/170/15
f 45/170/15 47/169/15 44/171/15
f 45/170/15 44/171/15 43/172/15
f 43/172/15 44/171/15 41/173/15
f 43/172/15 41/173/15 42/174/15
f 48/168/15 46/167/15 39/175/15
f 48/168/15 39/175/15 40/176/15
f 40/176/15 39/175/15 38/177/15
f 39/175/15 37/178/15 38/177/15
f 40/179/46 38/180/46 35/181/46
f 40/179/46 35/181/46 33/182/46
f 38/183/47 37/184/47 36/185/47
f 38/183/47 36/185/47 35/186/47
f 37/184/48 39/187/48 34/188/48
f 37/184/48 34/188/48 36/185/48
f 48/189/49 40/179/49 33/182/49
f 48/189/49 33/182/49 25/190/49
f 39/187/50 46/191/50 27/192/50
f 39/187/50 27/192/50 34/188/50
f 43/193/51 42/194/51 30/195/51
f 42/194/51 31/196/51 30/195/51
f 42/194/52 41/197/52 31/196/52
f 41/197/52 32/198/52 31/196/52
f 41/197/53 44/199/53 32/198/53
f 44/199/53 29/200/53 32/198/53
f 45/201/54 43/202/54 28/203/54
f 43/202/54 30/204/54 28/203/54
f 44/199/55 47/205/55 29/200/55
f 47/205/55 26/206/55 29/200/55
f 46/207/56 45/201/56 28/203/56
f 46/207/56 28/203/56 27/208/56
f 47/209/16 48/189/16 26/210/16
f 48/189/16 25/190/16 26/210/16
f 26/211/14 25/212/14 27/213/14
f 26/211/14 27/213/14 28/214/14
f 29/215/14 26/211/14 28/214/14
f 29/215/14 28/214/14 30/216/14
f 32/217/57 29/215/57 30/216/57
f 32/217/58 30/216/58 31/218/58
f 34/219/14 27/213/14 25/212/14
f 34/219/59 25/212/59 33/220/59
f 36/221/60 34/219/60 35/222/60
f 34/219/61 33/220/61 35/222/61
f 13/223/14 15/224/14 14/225/14
f 15/224/14 16/226/14 14/225/14
f 15/224/14 22/227/14 24/228/14
f 15/224/14 24/228/14 16/226/14
f 17/173/14 20/229/14 19/230/14
f 17/173/14 19/230/14 18/231/14
f 20/229/14 23/232/14 21/233/14
f 20/229/14 21/233/14 19/230/14
f 23/232/14 24/228/14 22/227/14
f 23/232/14 22/227/14 21/233/14
f 2/234/16 1/235/16 23/236/16
f 1/235/16 24/237/16 23/236/16
f 3/238/56 4/239/56 21/240/56
f 3/238/56 21/240/56 22/241/56
f 5/242/55 2/243/55 20/244/55
f 2/243/55 23/245/55 20/244/55
f 4/239/54 6/246/54 21/240/54
f 6/246/54 19/247/54 21/240/54
f 8/248/53 5/242/53 17/249/53
f 5/242/53 20/244/53 17/249/53
f 7/250/52 8/248/52 18/251/52
f 8/248/52 17/249/52 18/251/52
f 6/252/51 7/250/51 19/253/51
f 7/250/51 18/251/51 19/253/51
f 10/254/50 3/255/50 22/256/50
f 10/254/50 22/256/50 15/257/50
f 1/235/49 9/258/49 16/259/49
f 1/235/49 16/259/49 24/237/49
f 12/260/48 10/254/48 15/257/48
f 12/260/48 15/257/48 13/261/48
f 11/262/47 12/260/47 13/261/47
f 11/262/47 13/261/47 14/263/47
f 9/258/46 11/238/46 14/264/46
f 9/258/46 14/264/46 16/259/46
f 9/265/15 10/266/15 11/267/15
f 10/266/15 12/268/15 11/267/15
f 1/269/15 3/270/15 10/266/15
f 1/269/15 10/266/15 9/265/15
f 6/271/15 5/272/15 8/217/15
f 6/271/15 8/217/15 7/273/15
f 4/274/15 2/275/15 5/272/15
f 4/274/15 5/272/15 6/271/15
f 3/270/15 1/269/15 2/275/15
f 3/270/15 2/275/15 4/274/15
