# Blender v2.62 (sub 0) OBJ File: 'truck_04.blend'
# www.blender.org
v -2.579570 0.974761 0.047488
v -2.579570 -0.974761 0.047488
v -1.699102 0.974761 0.047488
v -1.699102 -0.974761 0.047488
v -2.579570 0.974761 0.927955
v -2.579570 -0.974761 0.927955
v -1.699102 0.974761 0.927955
v -1.699102 -0.974761 0.927955
v -2.139336 0.974761 -0.078751
v -2.139336 -0.974761 -0.078751
v -2.139336 0.974761 1.054194
v -2.139336 -0.974761 1.054194
v -2.705808 0.974761 0.487721
v -2.705808 -0.974761 0.487721
v -1.572864 0.974761 0.487721
v -1.572864 -0.974761 0.487721
v -2.139336 1.241725 0.487721
v -2.139336 -1.241725 0.487721
v -1.572864 1.219500 0.487721
v -1.572864 -1.219500 0.487721
v -2.705808 1.219500 0.487721
v -2.705808 -1.219500 0.487721
v -2.139336 1.219500 1.054194
v -2.139336 -1.219500 1.054194
v -2.139336 1.219500 -0.078751
v -2.139336 -1.219500 -0.078751
v -1.699102 1.219500 0.927955
v -1.699102 -1.219500 0.927955
v -2.579569 1.219500 0.927955
v -2.579569 -1.219500 0.927955
v -1.699102 1.219500 0.047488
v -1.699102 -1.219500 0.047488
v -2.579570 1.219500 0.047488
v -2.579570 -1.219500 0.047488
v 2.731460 1.107507 2.856786
v 2.731460 -1.107507 2.856786
v -1.359105 1.107509 2.856786
v -1.359105 -1.107509 2.856786
v 2.731459 1.107507 0.580737
v 2.731459 -1.107507 0.580737
v -1.359106 1.107508 0.580737
v -1.359106 -1.107508 0.580737
v -2.404793 0.948911 0.401311
v -2.404793 -0.948911 0.401311
v -1.433178 0.948910 0.401311
v -1.433178 -0.948910 0.401311
v -2.179372 0.813476 2.109142
v -2.179372 -0.813476 2.109142
v -1.433178 0.813474 2.109142
v -1.433178 -0.813474 2.109142
v -2.291999 0.000000 2.180079
v -1.433178 0.000000 2.180079
v -2.404793 0.948911 1.456533
v -2.404793 -0.948911 1.456533
v -1.433178 0.948910 1.456533
v -1.433178 -0.948910 1.456533
v -2.517420 0.000000 1.456533
v -3.013117 0.948911 1.274257
v -3.013117 -0.948911 1.274257
v -3.081097 0.000000 1.274257
v -2.917804 0.948911 0.401311
v -2.917804 -0.948911 0.401311
v -2.985783 0.000000 0.401311
v 1.102058 1.345455 0.047488
v 1.102058 -1.345455 0.047488
v 1.982525 1.345455 0.047488
v 1.982525 -1.345455 0.047488
v 1.102058 1.345455 0.927955
v 1.102058 -1.345455 0.927955
v 1.982525 1.345455 0.927955
v 1.982525 -1.345455 0.927955
v 1.542292 1.345455 -0.078751
v 1.542292 -1.345455 -0.078751
v 1.542292 1.345455 1.054194
v 1.542292 -1.345455 1.054194
v 0.975820 1.345455 0.487721
v 0.975820 -1.345455 0.487721
v 2.108764 1.345455 0.487721
v 2.108764 -1.345455 0.487721
v 1.542292 1.359183 0.487721
v 1.542292 -1.359183 0.487721
v 2.108764 1.100716 0.487721
v 2.108764 -1.100716 0.487721
v 0.975820 1.100716 0.487721
v 0.975820 -1.100716 0.487721
v 1.542292 1.100716 1.054194
v 1.542292 -1.100716 1.054194
v 1.542292 1.100716 -0.078751
v 1.542292 -1.100716 -0.078751
v 1.982525 1.100716 0.927955
v 1.982525 -1.100716 0.927955
v 1.102058 1.100716 0.927955
v 1.102058 -1.100716 0.927955
v 1.982525 1.100716 0.047488
v 1.982525 -1.100716 0.047488
v 1.102058 1.100716 0.047488
v 1.102058 -1.100716 0.047488
vt 0.303178 0.903057
vt 0.303178 0.971943
vt 0.478072 0.971943
vt 0.478072 0.903057
vt 0.131459 0.997950
vt 0.132324 0.868164
vt 0.261178 0.869347
vt 0.231501 0.970403
vt 0.132822 0.998362
vt 0.230268 0.969868
vt 0.232515 0.969699
vt 0.262110 0.869029
vt 0.233016 0.967192
vt 0.337585 0.010282
vt 0.637024 0.010282
vt 0.637024 0.287448
vt 0.337585 0.287448
vt 0.403140 0.829854
vt 0.260516 0.823557
vt 0.266270 0.693224
vt 0.403247 0.687122
vt 0.540215 0.693429
vt 0.545774 0.823771
vt 0.205476 0.021624
vt 0.205476 0.234444
vt 0.009518 0.234444
vt 0.009518 0.021624
vt 0.160013 0.366065
vt 0.009518 0.366065
vt 0.237854 0.574642
vt 0.403341 0.560971
vt 0.568808 0.574890
vt 0.241020 0.464845
vt 0.403417 0.459902
vt 0.565806 0.465087
vt 0.308942 0.021624
vt 0.328165 0.197682
vt 0.237854 0.311939
vt 0.403529 0.309795
vt 0.569200 0.312187
vt 0.647006 0.735012
vt 0.995572 0.735012
vt 0.995572 0.991683
vt 0.647006 0.991683
vt 0.647006 0.273718
vt 0.995572 0.273718
vt 0.647006 0.017048
vt 0.995572 0.017048
vn 0.961260 -0.000000 0.275644
vn 0.961260 -0.000001 -0.275645
vn 0.961260 0.000001 -0.275645
vn -0.961260 0.000001 0.275645
vn -0.961260 -0.000001 0.275645
vn -0.961260 -0.000000 -0.275644
vn 0.275645 0.000000 0.961260
vn -0.275645 0.000001 0.961260
vn -0.275645 -0.000001 0.961260
vn 0.275645 -0.000001 -0.961260
vn 0.275645 0.000001 -0.961260
vn -0.275645 -0.000000 -0.961260
vn -0.025226 0.999363 0.025226
vn -0.025226 -0.999363 0.025226
vn -0.025226 0.999363 -0.025226
vn -0.025226 -0.999363 -0.025226
vn 0.025226 0.999363 0.025226
vn 0.025226 -0.999363 0.025226
vn 0.025226 0.999363 -0.025226
vn 0.025226 -0.999363 -0.025226
vn 0.000000 1.000000 -0.000000
vn 0.000000 -1.000000 -0.000000
vn 0.000000 0.086873 0.996219
vn 0.000000 -0.086873 0.996219
vn 0.000001 1.000000 -0.000000
vn 0.000001 -1.000000 -0.000000
vn 0.000002 0.979137 0.203199
vn 0.000002 -0.979137 0.203199
vn -0.937949 0.132775 0.320348
vn -0.937949 -0.132775 0.320348
vn -0.296895 0.028254 0.954492
vn -0.296895 -0.028254 0.954492
vn 0.000000 1.000000 -0.000001
vn 0.000000 -1.000000 -0.000001
vn -0.991581 0.071037 -0.108266
vn -0.991581 -0.071037 -0.108266
vn 0.015587 0.999757 -0.015587
vn 0.015587 -0.999757 -0.015587
vn 0.015587 0.999757 0.015587
vn 0.015587 -0.999757 0.015587
vn -0.015587 0.999757 -0.015587
vn -0.015587 -0.999757 -0.015587
vn -0.015587 0.999757 0.015587
vn -0.015587 -0.999757 0.015587
vn 0.961260 -0.000000 0.275645
vn 1.000000 0.000000 -0.000000
vn 0.000000 -0.000000 1.000000
vn -1.000000 0.000000 0.000000
s off
f 15/1/1 19/2/1 27/3/1
f 15/1/1 27/3/1 7/4/1
f 28/3/1 20/2/1 16/1/1
f 28/3/1 16/1/1 8/4/1
f 3/1/2 31/2/2 19/3/2
f 3/1/2 19/3/2 15/4/2
f 20/3/3 32/2/3 4/1/3
f 20/3/3 4/1/3 16/4/3
f 5/1/4 29/2/4 21/3/4
f 5/1/4 21/3/4 13/4/4
f 22/3/5 30/2/5 6/1/5
f 22/3/5 6/1/5 14/4/5
f 33/3/6 1/4/6 13/1/6
f 33/3/6 13/1/6 21/2/6
f 34/3/6 22/2/6 14/1/6
f 34/3/6 14/1/6 2/4/6
f 7/1/7 27/2/7 23/3/7
f 7/1/7 23/3/7 11/4/7
f 24/3/7 28/2/7 8/1/7
f 24/3/7 8/1/7 12/4/7
f 11/1/8 23/2/8 29/3/8
f 11/1/8 29/3/8 5/4/8
f 30/3/9 24/2/9 12/1/9
f 30/3/9 12/1/9 6/4/9
f 9/1/10 25/2/10 31/3/10
f 9/1/10 31/3/10 3/4/10
f 32/3/11 26/2/11 10/1/11
f 32/3/11 10/1/11 4/4/11
f 1/1/12 33/2/12 25/3/12
f 1/1/12 25/3/12 9/4/12
f 26/3/12 34/2/12 2/1/12
f 26/3/12 2/1/12 10/4/12
f 23/5/13 17/6/13 21/7/13
f 23/5/13 21/7/13 29/8/13
f 22/7/14 18/6/14 24/5/14
f 22/7/14 24/5/14 30/8/14
f 17/6/15 25/9/15 33/10/15
f 17/6/15 33/10/15 21/7/15
f 34/10/16 26/9/16 18/6/16
f 34/10/16 18/6/16 22/7/16
f 27/11/17 19/12/17 17/6/17
f 27/11/17 17/6/17 23/5/17
f 18/6/18 20/12/18 28/11/18
f 18/6/18 28/11/18 24/5/18
f 19/12/19 31/13/19 25/9/19
f 19/12/19 25/9/19 17/6/19
f 26/9/20 32/13/20 20/12/20
f 26/9/20 20/12/20 18/6/20
f 41/14/21 37/15/21 35/16/21
f 41/14/21 35/16/21 39/17/21
f 36/16/22 38/15/22 42/14/22
f 36/16/22 42/14/22 40/17/22
f 52/18/23 49/19/23 47/20/23
f 52/18/23 47/20/23 51/21/23
f 48/22/24 50/23/24 52/18/24
f 48/22/24 52/18/24 51/21/24
f 43/24/25 53/25/25 55/26/25
f 43/24/25 55/26/25 45/27/25
f 56/26/26 54/25/26 44/24/26
f 56/26/26 44/24/26 46/27/26
f 53/25/27 47/28/27 49/29/27
f 53/25/27 49/29/27 55/26/27
f 50/29/28 48/28/28 54/25/28
f 50/29/28 54/25/28 56/26/28
f 47/20/29 53/30/29 57/31/29
f 47/20/29 57/31/29 51/21/29
f 57/31/30 54/32/30 48/22/30
f 57/31/30 48/22/30 51/21/30
f 57/31/31 53/30/31 58/33/31
f 57/31/31 58/33/31 60/34/31
f 59/35/32 54/32/32 57/31/32
f 59/35/32 57/31/32 60/34/32
f 53/25/33 43/24/33 61/36/33
f 53/25/33 61/36/33 58/37/33
f 62/36/34 44/24/34 54/25/34
f 62/36/34 54/25/34 59/37/34
f 58/33/35 61/38/35 63/39/35
f 58/33/35 63/39/35 60/34/35
f 63/39/36 62/40/36 59/35/36
f 63/39/36 59/35/36 60/34/36
f 78/12/37 66/13/37 72/9/37
f 78/12/37 72/9/37 80/6/37
f 73/9/38 67/13/38 79/12/38
f 73/9/38 79/12/38 81/6/38
f 70/11/39 78/12/39 80/6/39
f 70/11/39 80/6/39 74/5/39
f 81/6/40 79/12/40 71/11/40
f 81/6/40 71/11/40 75/5/40
f 80/6/41 72/9/41 64/10/41
f 80/6/41 64/10/41 76/7/41
f 65/10/42 73/9/42 81/6/42
f 65/10/42 81/6/42 77/7/42
f 74/5/43 80/6/43 76/7/43
f 74/5/43 76/7/43 68/8/43
f 77/7/44 81/6/44 75/5/44
f 77/7/44 75/5/44 69/8/44
f 96/1/12 64/2/12 72/3/12
f 96/1/12 72/3/12 88/4/12
f 73/3/12 65/2/12 97/1/12
f 73/3/12 97/1/12 89/4/12
f 88/1/10 72/2/10 66/3/10
f 88/1/10 66/3/10 94/4/10
f 67/3/11 73/2/11 89/1/11
f 67/3/11 89/1/11 95/4/11
f 86/1/8 74/2/8 68/3/8
f 86/1/8 68/3/8 92/4/8
f 69/3/9 75/2/9 87/1/9
f 69/3/9 87/1/9 93/4/9
f 90/1/7 70/2/7 74/3/7
f 90/1/7 74/3/7 86/4/7
f 75/3/7 71/2/7 91/1/7
f 75/3/7 91/1/7 87/4/7
f 84/1/6 76/2/6 64/3/6
f 84/1/6 64/3/6 96/4/6
f 65/3/6 77/2/6 85/1/6
f 65/3/6 85/1/6 97/4/6
f 92/1/4 68/2/4 76/3/4
f 92/1/4 76/3/4 84/4/4
f 77/3/5 69/2/5 93/1/5
f 77/3/5 93/1/5 85/4/5
f 94/1/2 66/2/2 78/3/2
f 94/1/2 78/3/2 82/4/2
f 79/3/3 67/2/3 95/1/3
f 79/3/3 95/1/3 83/4/3
f 82/1/45 78/2/45 70/3/45
f 82/1/45 70/3/45 90/4/45
f 71/3/45 79/2/45 83/1/45
f 71/3/45 83/1/45 91/4/45
f 35/41/46 36/42/46 40/43/46
f 35/41/46 40/43/46 39/44/46
f 35/41/47 37/45/47 38/46/47
f 35/41/47 38/46/47 36/42/47
f 37/45/48 41/47/48 42/48/48
f 37/45/48 42/48/48 38/46/48
